<svg width="30" height="30" viewBox="0 0 30 30" fill="none" xmlns="http://www.w3.org/2000/svg">
<g clip-path="url(#clip0)">
<path d="M15.0004 30C23.2712 30 30 23.2709 30 14.9999C30 6.72906 23.2712 0 15.0004 0C6.7295 0 0.000579834 6.72906 0.000579834 14.9999C0.000579834 23.2709 6.7295 30 15.0004 30ZM15.0004 2.05338C22.139 2.05338 27.9467 7.86116 27.9468 14.9999C27.9468 22.1387 22.1392 27.9465 15.0004 27.9466C7.86173 27.9465 2.0541 22.1387 2.0541 14.9998C2.0541 7.86129 7.86173 2.05338 15.0004 2.05338Z" fill="#8854D0"/>
<path d="M12.9857 21.4245C13.3867 21.8254 14.0368 21.8252 14.4376 21.4245C14.8387 21.0234 14.8387 20.3735 14.4374 19.9724L10.4922 16.0273L21.9168 16.0262C22.4838 16.0261 22.9434 15.5665 22.9434 14.9992C22.9432 14.4322 22.4837 13.9728 21.9167 13.9728L10.4917 13.9739L14.4379 10.028C14.8388 9.62706 14.8388 8.97682 14.4379 8.576C14.2373 8.37559 13.9746 8.27525 13.7118 8.27525C13.4491 8.27525 13.1864 8.37559 12.9858 8.57587L7.28717 14.2744C7.09456 14.4669 6.98642 14.7279 6.98642 15.0003C6.98656 15.2728 7.0947 15.5337 7.28731 15.7266L12.9857 21.4245Z" fill="#8854D0"/>
</g>
<defs>
<clipPath id="clip0">
<rect width="30" height="30" fill="white"/>
</clipPath>
</defs>
</svg>
