<svg width="180" height="130" viewBox="0 0 180 130" fill="none" xmlns="http://www.w3.org/2000/svg">
<path d="M163.847 118.676C160.397 122.075 156.443 125.009 152.102 127.393C152.003 127.449 151.901 127.502 151.8 127.557L144.773 121.835C144.847 121.772 144.929 121.702 145.017 121.624C150.252 117.051 176.245 85.0749 177.977 77.2883C177.857 77.937 179.54 103.376 163.847 118.676Z" fill="#F0F0F0"/>
<path d="M153.458 128.497C153.325 128.526 153.19 128.553 153.054 128.578L147.783 124.286C147.886 124.253 148.006 124.214 148.144 124.17C150.406 123.433 157.142 121.209 163.847 118.676C171.05 115.953 178.219 112.876 179.761 110.905C179.43 111.363 169.242 125.25 153.458 128.497Z" fill="#F0F0F0"/>
<path d="M163.75 34.0466H162.999V15.1281C162.999 13.6902 162.691 12.2664 162.093 10.938C161.495 9.6095 160.618 8.40243 159.512 7.38568C158.407 6.36892 157.095 5.56238 155.651 5.01212C154.207 4.46185 152.659 4.17863 151.096 4.17863H107.523C105.96 4.17863 104.412 4.46184 102.968 5.01211C101.524 5.56237 100.212 6.3689 99.1067 7.38565C98.0013 8.40241 97.1246 9.60947 96.5264 10.9379C95.9282 12.2664 95.6203 13.6902 95.6203 15.1281V118.916C95.6203 120.354 95.9282 121.778 96.5264 123.107C97.1245 124.435 98.0013 125.642 99.1066 126.659C100.212 127.676 101.524 128.482 102.968 129.032C104.412 129.583 105.96 129.866 107.523 129.866H151.096C152.659 129.866 154.207 129.583 155.651 129.032C157.095 128.482 158.407 127.676 159.512 126.659C160.618 125.642 161.495 124.435 162.093 123.107C162.691 121.778 162.999 120.354 162.999 118.916V47.5131H163.75V34.0466Z" fill="#3F3D56"/>
<path d="M160.465 15.2034V118.841C160.465 119.914 160.235 120.978 159.788 121.97C159.341 122.962 158.687 123.863 157.861 124.622C157.035 125.382 156.055 125.984 154.977 126.394C153.898 126.805 152.742 127.016 151.575 127.016H107.793C106.626 127.016 105.47 126.805 104.392 126.394C103.313 125.983 102.333 125.381 101.508 124.622C100.683 123.862 100.028 122.961 99.5816 121.969C99.135 120.977 98.9052 119.914 98.9053 118.841V15.2034C98.9052 14.1297 99.135 13.0666 99.5816 12.0747C100.028 11.0828 100.683 10.1815 101.508 9.42238C102.333 8.66322 103.313 8.06104 104.392 7.65022C105.47 7.2394 106.626 7.028 107.793 7.02808H113.106C112.845 7.61798 112.746 8.25781 112.817 8.89127C112.888 9.52473 113.127 10.1324 113.513 10.6609C113.9 11.1894 114.421 11.6224 115.032 11.922C115.643 12.2216 116.325 12.3785 117.017 12.3789H141.978C142.671 12.3795 143.353 12.2233 143.965 11.924C144.576 11.6247 145.098 11.1916 145.485 10.6628C145.871 10.134 146.11 9.52583 146.181 8.89195C146.251 8.25807 146.151 7.61795 145.889 7.02808H151.575C152.742 7.02769 153.898 7.23886 154.977 7.64953C156.055 8.06021 157.035 8.66233 157.861 9.42152C158.687 10.1807 159.341 11.0821 159.788 12.0741C160.235 13.0662 160.465 14.1295 160.465 15.2034Z" fill="white"/>
<path d="M146.846 69.0588H108.363C107.689 69.0581 107.043 68.8115 106.566 68.3731C106.09 67.9346 105.821 67.3402 105.821 66.7201V65.556C105.821 64.936 106.09 64.3415 106.566 63.9031C107.043 63.4647 107.689 63.218 108.363 63.2173H146.846C147.52 63.218 148.166 63.4647 148.643 63.9031C149.12 64.3415 149.388 64.936 149.388 65.556V66.7201C149.388 67.3402 149.12 67.9346 148.643 68.3731C148.166 68.8115 147.52 69.0581 146.846 69.0588Z" fill="#F0F0F0"/>
<path d="M146.846 79.0935H108.363C107.689 79.0928 107.043 78.8462 106.566 78.4077C106.09 77.9693 105.821 77.3748 105.821 76.7548V75.5907C105.821 74.9707 106.09 74.3762 106.566 73.9378C107.043 73.4993 107.689 73.2527 108.363 73.252H146.846C147.52 73.2527 148.166 73.4993 148.643 73.9378C149.12 74.3762 149.388 74.9707 149.388 75.5907V76.7548C149.388 77.3748 149.12 77.9693 148.643 78.4077C148.166 78.8462 147.52 79.0928 146.846 79.0935Z" fill="#F0F0F0"/>
<path d="M148.771 66.8146H110.288C109.58 66.8138 108.902 66.5549 108.401 66.0945C107.901 65.6342 107.619 65.01 107.619 64.3589V63.1948C107.619 62.5438 107.901 61.9196 108.401 61.4593C108.902 60.9989 109.58 60.74 110.288 60.7392H148.771C149.479 60.74 150.157 60.9989 150.658 61.4593C151.158 61.9196 151.44 62.5438 151.441 63.1948V64.3589C151.44 65.01 151.158 65.6342 150.658 66.0945C150.157 66.5549 149.479 66.8138 148.771 66.8146ZM110.288 61.207C109.715 61.2076 109.166 61.4172 108.761 61.7899C108.356 62.1625 108.128 62.6678 108.127 63.1948V64.3589C108.128 64.886 108.356 65.3913 108.761 65.7639C109.166 66.1366 109.715 66.3462 110.288 66.3468H148.771C149.344 66.3462 149.893 66.1366 150.299 65.7639C150.704 65.3913 150.932 64.886 150.932 64.3589V63.1948C150.932 62.6678 150.704 62.1625 150.299 61.7899C149.893 61.4172 149.344 61.2076 148.771 61.207H110.288Z" fill="#3F3D56"/>
<path d="M148.771 76.8492H110.288C109.58 76.8485 108.902 76.5895 108.401 76.1292C107.901 75.6688 107.619 75.0447 107.619 74.3936V73.2295C107.619 72.5785 107.901 71.9543 108.401 71.494C108.902 71.0336 109.58 70.7746 110.288 70.7739H148.771C149.479 70.7746 150.157 71.0336 150.658 71.494C151.158 71.9543 151.44 72.5785 151.441 73.2295V74.3936C151.44 75.0447 151.158 75.6688 150.658 76.1292C150.157 76.5895 149.479 76.8485 148.771 76.8492ZM110.288 71.2416C109.715 71.2422 109.166 71.4518 108.761 71.8245C108.356 72.1972 108.128 72.7025 108.127 73.2295V74.3936C108.128 74.9207 108.356 75.4259 108.761 75.7986C109.166 76.1713 109.715 76.3809 110.288 76.3815H148.771C149.344 76.3809 149.893 76.1713 150.299 75.7986C150.704 75.4259 150.932 74.9207 150.932 74.3936V73.2295C150.932 72.7025 150.704 72.1972 150.299 71.8245C149.893 71.4518 149.344 71.2422 148.771 71.2416H110.288Z" fill="#3F3D56"/>
<path d="M160.465 15.2034V37.7459C156.571 38.6883 152.494 38.7964 148.548 38.0619C144.601 37.3275 140.891 35.7701 137.701 33.5095C134.512 31.2489 131.929 28.3454 130.15 25.0224C128.372 21.6994 127.446 18.0454 127.444 14.3416C127.444 13.6805 127.473 13.0262 127.531 12.3789H141.978C142.671 12.3795 143.353 12.2233 143.965 11.924C144.576 11.6247 145.098 11.1916 145.485 10.6628C145.871 10.134 146.11 9.52583 146.181 8.89195C146.251 8.25807 146.151 7.61795 145.889 7.02808H151.575C152.742 7.02769 153.898 7.23886 154.977 7.64953C156.055 8.06021 157.035 8.66233 157.861 9.42152C158.687 10.1807 159.341 11.0821 159.788 12.0741C160.235 13.0662 160.465 14.1295 160.465 15.2034Z" fill="#F0F0F0"/>
<path d="M121.027 125.608C121.027 126.083 121.008 126.553 120.966 127.016H107.793C106.626 127.016 105.47 126.805 104.392 126.394C103.313 125.983 102.333 125.381 101.508 124.622C100.683 123.862 100.028 122.961 99.5816 121.969C99.135 120.977 98.9052 119.914 98.9053 118.841V107.755C101.667 107.425 104.473 107.64 107.137 108.385C109.801 109.131 112.262 110.391 114.355 112.08C116.448 113.769 118.126 115.85 119.277 118.182C120.427 120.515 121.024 123.047 121.027 125.608H121.027Z" fill="#8854D0"/>
<path d="M14.7766 106.157C15.1468 106.307 15.5664 106.316 15.9435 106.181C16.3205 106.047 16.6242 105.78 16.7879 105.44L28.6555 80.6982C28.9271 80.132 29.0101 79.5045 28.894 78.8949C28.7779 78.2853 28.4678 77.721 28.0031 77.2735C27.5383 76.826 26.9398 76.5154 26.2831 76.3808C25.6264 76.2463 24.9411 76.2939 24.3138 76.5176H24.3138C23.5891 76.7722 22.9826 77.2499 22.5976 77.8694C22.5364 77.9675 22.4809 78.0684 22.4313 78.1718L10.5636 102.914C10.4827 103.082 10.4388 103.264 10.4342 103.448C10.4296 103.632 10.4645 103.816 10.5369 103.987C10.6093 104.159 10.7178 104.316 10.8562 104.45C10.9946 104.583 11.1602 104.69 11.3435 104.764L14.7766 106.157Z" fill="#8854D0"/>
<path d="M28.1683 90.8559L16.4297 88.4562L19.3351 81.3859C19.8301 79.6578 20.9819 78.1501 22.5818 77.1363C24.1816 76.1225 26.1235 75.6697 28.0552 75.8601L28.1683 75.8716L28.1683 90.8559Z" fill="#2F2E41"/>
<path d="M51.8784 106.511C51.5331 106.511 51.1954 106.418 50.9061 106.245C50.6168 106.071 50.3883 105.825 50.2482 105.534L38.3806 80.7926C38.0032 80.0053 37.9681 79.115 38.2826 78.3047C38.5971 77.4944 39.2372 76.8258 40.0712 76.4364C40.9053 76.047 41.8698 75.9665 42.7665 76.2114C43.6631 76.4563 44.4236 77.008 44.8915 77.7529V77.7528C44.9573 77.8581 45.0169 77.9664 45.0701 78.0775L56.9377 102.819C57.1283 103.217 57.1394 103.667 56.9688 104.072C56.7982 104.477 56.4597 104.803 56.0279 104.978L52.4784 106.419L52.4766 106.415C52.2847 106.479 52.0823 106.511 51.8784 106.511Z" fill="#8854D0"/>
<path d="M35.4624 98.015C35.058 98.0154 34.6703 98.1634 34.3843 98.4265C34.0983 98.6895 33.9375 99.0462 33.937 99.4182V128.187C33.9375 128.559 34.0983 128.916 34.3843 129.179C34.6703 129.442 35.058 129.59 35.4624 129.591H39.2149C39.6193 129.59 40.007 129.442 40.293 129.179C40.579 128.916 40.7398 128.559 40.7403 128.187V99.4182C40.7398 99.0462 40.579 98.6895 40.293 98.4265C40.007 98.1634 39.6193 98.0154 39.2149 98.015H35.4624Z" fill="#8854D0"/>
<path d="M28.0406 98.015C27.6362 98.0154 27.2485 98.1634 26.9625 98.4265C26.6765 98.6895 26.5156 99.0462 26.5152 99.4182V128.187C26.5156 128.559 26.6765 128.916 26.9625 129.179C27.2485 129.442 27.6362 129.59 28.0406 129.591H31.7931C32.1975 129.59 32.5853 129.442 32.8712 129.179C33.1572 128.916 33.3181 128.559 33.3185 128.187V99.4182C33.3181 99.0462 33.1572 98.6895 32.8712 98.4265C32.5853 98.1634 32.1975 98.0154 31.7931 98.015H28.0406Z" fill="#8854D0"/>
<path d="M33.5156 67.8743C40.6766 67.8743 46.4817 62.5343 46.4817 55.947C46.4817 49.3598 40.6766 44.0197 33.5156 44.0197C26.3546 44.0197 20.5495 49.3598 20.5495 55.947C20.5495 62.5343 26.3546 67.8743 33.5156 67.8743Z" fill="#8854D0"/>
<path d="M37.8305 60.9539C38.671 60.9324 39.717 60.9056 40.5229 60.3641C40.7628 60.1962 40.96 59.9821 41.1005 59.7368C41.2411 59.4915 41.3216 59.2208 41.3364 58.9439C41.351 58.747 41.3159 58.5497 41.2339 58.3675C41.1518 58.1852 41.025 58.0228 40.8635 57.8931C40.4426 57.5659 39.828 57.4891 39.1656 57.6682L39.8519 53.055L39.3481 52.9915L38.5413 58.4149L38.962 58.2373C39.4497 58.0316 40.1192 57.9269 40.5352 58.2503C40.6374 58.3348 40.717 58.4399 40.7678 58.5573C40.8186 58.6748 40.8393 58.8014 40.8283 58.9274C40.816 59.1336 40.7555 59.3348 40.651 59.5176C40.5466 59.7003 40.4006 59.8602 40.2229 59.9863C39.5958 60.4077 38.762 60.4621 37.8163 60.4864L37.8305 60.9539Z" fill="#2F2E41"/>
<path d="M45.0817 53.4529H42.3432V53.9206H45.0817V53.4529Z" fill="#2F2E41"/>
<path d="M36.4376 53.4529H33.6991V53.9206H36.4376V53.4529Z" fill="#2F2E41"/>
<path d="M46.3632 106.657L41.6964 75.3181C41.6463 74.9821 41.4657 74.6741 41.1878 74.4512C40.91 74.2282 40.5537 74.1054 40.185 74.1054H36.6624C36.6771 74.0281 36.6847 73.9499 36.6853 73.8715V72.7022C36.6853 72.33 36.5245 71.9731 36.2385 71.71C35.9524 71.4468 35.5644 71.299 35.1598 71.299H32.109C31.7044 71.299 31.3164 71.4468 31.0304 71.71C30.7443 71.9731 30.5836 72.33 30.5836 72.7022V73.8715C30.5841 73.9499 30.5917 74.0281 30.6064 74.1054H27.0838C26.7151 74.1054 26.3589 74.2282 26.081 74.4512C25.8032 74.6741 25.6225 74.9821 25.5724 75.3181L20.9057 106.657C20.8761 106.855 20.8931 107.057 20.9555 107.249C21.0179 107.441 21.1243 107.618 21.2674 107.769C21.4106 107.92 21.5873 108.041 21.7856 108.124C21.9838 108.207 22.1991 108.25 22.4169 108.25H44.8519C45.0697 108.25 45.285 108.207 45.4832 108.124C45.6815 108.041 45.8582 107.92 46.0014 107.769C46.1446 107.618 46.2509 107.441 46.3133 107.249C46.3757 107.057 46.3927 106.855 46.3632 106.657Z" fill="#2F2E41"/>
<path d="M39.1005 90.8559V75.8716L39.2136 75.8601C41.1476 75.6699 43.0917 76.1242 44.6926 77.1404C46.2934 78.1566 47.4449 79.6673 47.9379 81.3981L50.8391 88.4562L39.1005 90.8559Z" fill="#2F2E41"/>
<path d="M32.8627 68.2465L23.8943 65.0444C22.4278 64.5208 20.9531 64.0131 19.4944 63.4715C18.8695 63.2712 18.2939 62.9591 17.8008 62.5533C17.3714 62.1352 17.0788 61.6142 16.9564 61.0502C16.6454 59.8408 16.7016 58.5185 16.7238 57.2843C16.741 55.9342 16.8618 54.5868 17.0853 53.2523C17.4769 50.7445 18.3966 48.3311 19.7929 46.1472C22.308 42.3512 26.6414 39.4952 31.6259 39.7231C33.9335 39.8286 36.2544 40.5904 37.969 42.0417C38.1478 42.2383 38.3485 42.4172 38.5677 42.5755C38.7201 42.6281 38.8859 42.6383 39.0446 42.6049C39.2538 42.5925 39.4632 42.5831 39.6728 42.5766C40.3999 42.5484 41.1284 42.5765 41.8504 42.6606C43.1663 42.7914 44.4134 43.2677 45.4429 44.0328C46.2997 44.7108 46.9969 45.6679 47.0686 46.7316C47.1032 47.2199 47.0155 47.709 46.8121 48.1611C46.6087 48.6133 46.2951 49.0164 45.8955 49.3394C44.8255 50.1689 43.2989 49.8773 42.0155 49.8148L37.3137 49.5856L34.9314 49.4695C34.4409 49.4456 34.4423 50.1473 34.9314 50.1712L41.2632 50.4797C42.2807 50.5293 43.3294 50.6508 44.3477 50.5947C45.1302 50.5621 45.8773 50.2856 46.4663 49.8107C47.0042 49.3561 47.4049 48.7811 47.6294 48.1417C47.8538 47.5022 47.8942 46.8202 47.7468 46.1621C47.4204 44.7267 46.2591 43.5393 44.8977 42.8329C43.0452 41.8718 40.8329 41.7797 38.7602 41.9218L39.0298 42.0245C36.6852 39.7097 33.0938 38.7323 29.7221 39.0743C26.1622 39.4355 22.996 41.2624 20.7211 43.7605C18.1847 46.5457 16.8025 50.0187 16.2652 53.5899C15.9856 55.5181 15.8935 57.4653 15.9901 59.4085C15.9861 60.2655 16.1455 61.1165 16.461 61.9229C16.821 62.7076 17.4719 63.3495 18.2979 63.7344C19.245 64.155 20.2186 64.5229 21.2135 64.8362L24.5176 66.0159L31.0079 68.3332L32.6599 68.9231C33.1178 69.0865 33.3161 68.4084 32.8627 68.2465Z" fill="#2F2E41"/>
<path d="M18.7615 44.404C17.9821 44.404 17.2203 44.1915 16.5722 43.7931C15.9242 43.3948 15.4191 42.8287 15.1208 42.1663C14.8226 41.5039 14.7445 40.7751 14.8966 40.0719C15.0486 39.3687 15.4239 38.7228 15.9751 38.2158C16.5262 37.7089 17.2283 37.3636 17.9928 37.2238C18.7572 37.0839 19.5495 37.1557 20.2696 37.4301C20.9896 37.7044 21.6051 38.169 22.0381 38.7652C22.4711 39.3613 22.7022 40.0621 22.7022 40.7791C22.701 41.7402 22.2855 42.6615 21.5467 43.3411C20.808 44.0207 19.8063 44.403 18.7615 44.404ZM18.7615 37.8557C18.133 37.8557 17.5186 38.0272 16.996 38.3484C16.4733 38.6696 16.066 39.1262 15.8255 39.6604C15.585 40.1945 15.522 40.7823 15.6446 41.3494C15.7673 41.9165 16.0699 42.4374 16.5144 42.8462C16.9588 43.2551 17.5251 43.5335 18.1416 43.6463C18.758 43.7591 19.397 43.7012 19.9777 43.4799C20.5584 43.2587 21.0547 42.884 21.4039 42.4032C21.7531 41.9225 21.9395 41.3573 21.9395 40.7791C21.9386 40.004 21.6034 39.261 21.0077 38.7129C20.4119 38.1649 19.6041 37.8566 18.7615 37.8557Z" fill="#2F2E41"/>
<path d="M84.6354 66.8683L76.106 60.8675L69.5825 68.7135L78.1119 74.7144L84.6354 66.8683Z" fill="#F0F0F0"/>
<path d="M36.431 13.2995C37.7787 13.2985 39.1078 13.5879 40.3121 14.1443C41.5163 14.7008 42.5622 15.5089 43.3659 16.504L48.3464 10.5138L33.4026 0L21.9733 13.7466L28.414 18.278C29.0585 16.8075 30.1662 15.5479 31.5947 14.6608C33.0232 13.7737 34.7074 13.2996 36.431 13.2995Z" fill="#F0F0F0"/>
<path d="M179.746 130H0.254237C0.186809 130 0.122143 129.975 0.0744642 129.931C0.0267854 129.888 0 129.828 0 129.766C0 129.704 0.0267854 129.645 0.0744642 129.601C0.122143 129.557 0.186809 129.532 0.254237 129.532H179.746C179.813 129.532 179.878 129.557 179.926 129.601C179.973 129.645 180 129.704 180 129.766C180 129.828 179.973 129.888 179.926 129.931C179.878 129.975 179.813 130 179.746 130Z" fill="#3F3D56"/>
<path d="M135.937 91.194H117.667C116.993 91.1933 116.347 90.9467 115.871 90.5082C115.394 90.0698 115.126 89.4754 115.125 88.8553V87.6912C115.126 87.0712 115.394 86.4767 115.871 86.0383C116.347 85.5999 116.993 85.3532 117.667 85.3525H135.937C136.611 85.3532 137.258 85.5999 137.734 86.0383C138.211 86.4767 138.479 87.0712 138.48 87.6912V88.8553C138.479 89.4754 138.211 90.0698 137.734 90.5082C137.258 90.9467 136.611 91.1933 135.937 91.194Z" fill="#8854D0"/>
<path d="M137.863 88.9499H119.593C118.885 88.9491 118.206 88.6902 117.706 88.2298C117.205 87.7695 116.924 87.1453 116.923 86.4943V85.3302C116.924 84.6791 117.205 84.0549 117.706 83.5946C118.206 83.1342 118.885 82.8753 119.593 82.8745H137.863C138.57 82.8753 139.249 83.1342 139.749 83.5946C140.25 84.0549 140.531 84.6791 140.532 85.3302V86.4943C140.531 87.1453 140.25 87.7695 139.749 88.2298C139.249 88.6902 138.57 88.9491 137.863 88.9499ZM119.593 83.3423C119.02 83.3429 118.47 83.5525 118.065 83.9252C117.66 84.2978 117.432 84.8031 117.432 85.3302V86.4943C117.432 87.0213 117.66 87.5266 118.065 87.8993C118.47 88.2719 119.02 88.4815 119.593 88.4821H137.863C138.436 88.4815 138.985 88.2719 139.39 87.8993C139.795 87.5266 140.023 87.0213 140.024 86.4943V85.3302C140.023 84.8031 139.795 84.2978 139.39 83.9252C138.985 83.5525 138.436 83.3429 137.863 83.3423H119.593Z" fill="#3F3D56"/>
</svg>
