<svg width="180" height="130" viewBox="0 0 180 130" fill="none" xmlns="http://www.w3.org/2000/svg">
<path d="M131.598 130C126.621 129.149 121.835 128.425 117.242 127.828L119.011 123.962C118.397 123.739 115.736 125.975 115.736 125.975L117.988 114.794C114.918 115.241 113.485 126.646 113.485 126.646L110.006 122.844L111.718 127.148C97.6619 125.534 85.5326 125.031 75.3365 125.146L76.8505 121.838C76.2365 121.614 73.5759 123.851 73.5759 123.851L75.8272 112.67C72.7573 113.117 71.3246 124.521 71.3246 124.521L67.8454 120.72L69.6594 125.279C62.6752 125.5 55.706 126.113 48.7793 127.116C50.29 121.973 55.5657 117.03 55.5657 117.03C51.5092 118.409 49.3988 120.656 48.3065 122.738C48.0855 112.173 49.573 101.649 52.7004 91.6497C52.7004 91.6497 44.514 111.775 45.7419 125.192L45.8977 127.576C38.7756 128.79 35.2018 130 35.2018 130H131.598Z" fill="#3F3D56"/>
<path d="M150.359 102.302C149.873 102.302 149.399 102.144 148.995 101.85C148.591 101.555 148.276 101.136 148.09 100.645C147.904 100.155 147.856 99.6155 147.95 99.0949C148.045 98.5744 148.279 98.0963 148.622 97.721C148.966 97.3457 149.404 97.0901 149.88 96.9866C150.356 96.883 150.85 96.9362 151.299 97.1393C151.748 97.3424 152.131 97.6863 152.401 98.1276C152.671 98.5689 152.815 99.0877 152.815 99.6184C152.814 100.33 152.555 101.012 152.095 101.515C151.634 102.018 151.01 102.301 150.359 102.302ZM150.359 97.3822C149.954 97.3822 149.559 97.5134 149.222 97.7591C148.885 98.0048 148.623 98.3541 148.468 98.7627C148.313 99.1713 148.273 99.6209 148.352 100.055C148.431 100.488 148.626 100.887 148.912 101.2C149.198 101.512 149.563 101.725 149.96 101.812C150.357 101.898 150.768 101.854 151.142 101.684C151.516 101.515 151.836 101.229 152.061 100.861C152.286 100.493 152.406 100.061 152.406 99.6184C152.405 99.0256 152.189 98.4572 151.806 98.0379C151.422 97.6187 150.902 97.3829 150.359 97.3822Z" fill="#3F3D56"/>
<path d="M169.972 129.648H165.931V125.233H169.972V129.648ZM166.242 129.308H169.661V125.573H166.242V129.308Z" fill="#3F3D56"/>
<path d="M33.1846 129.889L30.4288 126.661L33.3834 123.65L36.1392 126.878L33.1846 129.889ZM30.8681 126.678L33.1999 129.41L35.6999 126.862L33.3681 124.13L30.8681 126.678Z" fill="#3F3D56"/>
<path d="M180 129.399H4.43546V129.846H180V129.399Z" fill="#3F3D56"/>
<path d="M113.275 29.911V44.5982C113.275 44.7339 113.225 44.8639 113.137 44.9599C113.05 45.0558 112.931 45.1099 112.806 45.1103H112.473V121.621C112.473 123.738 111.703 125.769 110.333 127.266C108.963 128.763 107.104 129.604 105.166 129.604H61.4118C60.4524 129.604 59.5025 129.397 58.6162 128.996C57.7299 128.595 56.9246 128.007 56.2463 127.265C55.568 126.524 55.03 125.644 54.663 124.676C54.296 123.707 54.1072 122.669 54.1074 121.621V47.7937H53.8659C53.7783 47.7938 53.6942 47.756 53.632 47.6885C53.5699 47.621 53.5348 47.5294 53.5343 47.4337V39.0749C53.5343 39.0273 53.5429 38.9802 53.5596 38.9362C53.5762 38.8923 53.6006 38.8523 53.6314 38.8187C53.6622 38.785 53.6988 38.7584 53.739 38.7402C53.7792 38.722 53.8224 38.7126 53.8659 38.7126H54.1074V35.5641H53.8638C53.7719 35.5637 53.6838 35.5234 53.6189 35.4522C53.5541 35.3809 53.5178 35.2844 53.518 35.1839V26.9392C53.5182 26.839 53.5547 26.743 53.6195 26.6722C53.6843 26.6014 53.7722 26.5615 53.8638 26.5612H54.1074V22.2633H53.8598C53.8194 22.2634 53.7795 22.2548 53.7422 22.2379C53.7049 22.2211 53.6711 22.1964 53.6426 22.1652C53.614 22.1341 53.5914 22.0971 53.576 22.0563C53.5606 22.0156 53.5527 21.972 53.5528 21.9279V17.4287C53.5526 17.3395 53.5848 17.2538 53.6423 17.1905C53.6999 17.1272 53.7781 17.0915 53.8598 17.0911H54.1074V7.9809C54.1075 5.86426 54.8771 3.83434 56.2469 2.33765C57.6167 0.840958 59.4746 9.23526e-05 61.4118 1.52589e-05H105.166C107.104 5.6899e-06 108.962 0.840772 110.332 2.33742C111.702 3.83406 112.472 5.86403 112.473 7.9809V29.3989H112.806C112.931 29.3993 113.05 29.4534 113.137 29.5493C113.225 29.6453 113.275 29.7753 113.275 29.911Z" fill="#3F3D56"/>
<path d="M85.3971 4.09372H78.2872C77.9999 4.09372 77.767 4.3482 77.767 4.66213V5.33357C77.767 5.64749 77.9999 5.90198 78.2872 5.90198H85.3971C85.6844 5.90198 85.9173 5.64749 85.9173 5.33357V4.66213C85.9173 4.3482 85.6844 4.09372 85.3971 4.09372Z" fill="#E6E8EC"/>
<path d="M88.0883 6.02351C88.6067 6.02351 89.027 5.56431 89.027 4.99785C89.027 4.4314 88.6067 3.9722 88.0883 3.9722C87.5699 3.9722 87.1496 4.4314 87.1496 4.99785C87.1496 5.56431 87.5699 6.02351 88.0883 6.02351Z" fill="#E6E8EC"/>
<path d="M108.974 9.55976V122.283C108.975 123.016 108.829 123.74 108.548 124.406C108.267 125.071 107.856 125.661 107.345 126.136C106.506 126.917 105.44 127.346 104.339 127.346H62.4544C61.7092 127.347 60.9748 127.151 60.3137 126.775C60.1584 126.689 60.008 126.591 59.8634 126.485C59.2339 126.021 58.7183 125.395 58.3618 124.662C58.0053 123.93 57.8189 123.113 57.8188 122.283V9.55976C57.8188 8.89461 57.9387 8.23598 58.1717 7.62146C58.4046 7.00694 58.7461 6.44857 59.1765 5.97824C59.607 5.50792 60.118 5.13484 60.6804 4.88031C61.2429 4.62578 61.8457 4.4948 62.4544 4.49483H68.7232V5.37364C68.7232 6.47971 69.1254 7.54048 69.8412 8.32259C70.557 9.10471 71.5279 9.54409 72.5402 9.5441H93.8414C94.8537 9.5441 95.8246 9.10471 96.5404 8.3226C97.2562 7.54049 97.6583 6.47972 97.6584 5.37364V4.49483H104.339C104.947 4.49461 105.55 4.62547 106.113 4.87993C106.675 5.13439 107.186 5.50746 107.617 5.97783C108.047 6.44819 108.389 7.00663 108.622 7.62123C108.855 8.23584 108.974 8.89456 108.974 9.55976Z" fill="#8854D0"/>
<path opacity="0.3" d="M108.974 106.147V122.283C108.975 123.016 108.829 123.74 108.548 124.406C108.267 125.071 107.856 125.661 107.345 126.136C106.506 126.917 105.44 127.346 104.339 127.346H62.4544C61.7092 127.347 60.9748 127.151 60.3137 126.775C60.1584 126.689 60.008 126.591 59.8634 126.485C59.2339 126.021 58.7183 125.395 58.3618 124.662C58.0053 123.93 57.8189 123.113 57.8188 122.283V106.153C64.8421 99.2556 73.9517 95.439 83.3953 95.4377C92.8389 95.4365 101.949 99.2508 108.974 106.147Z" fill="white"/>
<path opacity="0.3" d="M106.483 126.771C105.822 127.151 105.086 127.348 104.339 127.346H62.4546C61.7094 127.347 60.9749 127.151 60.3138 126.775C62.21 121.793 65.4142 117.535 69.5224 114.54C73.6305 111.545 78.4585 109.946 83.3973 109.946C88.3361 109.946 93.1643 111.543 97.2729 114.538C101.382 117.532 104.587 121.789 106.483 126.771Z" fill="white"/>
<path opacity="0.3" d="M97.3678 127.041C96.9676 127.271 96.522 127.39 96.0699 127.389H70.7249C70.2739 127.39 69.8295 127.272 69.4295 127.044C70.5769 124.029 72.5159 121.453 75.0018 119.64C77.4877 117.828 80.4093 116.861 83.3978 116.86C86.3864 116.86 89.3081 117.827 91.7943 119.639C94.2806 121.451 96.22 124.027 97.3678 127.041Z" fill="white"/>
<path d="M94.0515 48.1337C89.8501 48.1337 85.2392 47.2596 81.6396 44.3099C76.628 40.2031 70.4535 40.4222 66.1563 41.3295C63.3019 41.9371 60.5314 42.9454 57.9136 44.3293L57.7244 43.9327C60.3741 42.5309 63.1785 41.509 66.0679 40.8926C70.4496 39.966 76.7506 39.7446 81.8852 43.9522C91.5042 51.8345 108.728 44.755 108.901 44.6828L109.048 45.1004C105.818 46.3583 102.477 47.2468 99.0793 47.7518C97.4129 48.0002 95.7333 48.1278 94.0515 48.1337Z" fill="white"/>
<path opacity="0.3" d="M57.8169 44.131C57.8169 44.131 71.9386 40.3938 81.7624 45.5107C91.5861 50.6275 108.982 45.4727 108.982 45.4727" fill="white"/>
<path opacity="0.3" d="M71.1489 49.9363C69.443 49.928 67.7417 49.7424 66.0679 49.382C63.1785 48.7656 60.3741 47.7437 57.7244 46.3418L57.9136 45.9453C60.5314 47.3291 63.3019 48.3374 66.1563 48.9451C70.4533 49.8522 76.6279 50.0715 81.6396 45.9647C86.7697 41.7607 93.9556 41.7725 99.0793 42.5227C102.477 43.0277 105.818 43.9163 109.048 45.1742L108.901 45.5917C108.728 45.5193 91.5044 38.4396 81.8852 46.3224C78.5181 49.0817 74.649 49.9363 71.1489 49.9363Z" fill="white"/>
<path opacity="0.3" d="M71.2182 48.1356C64.1299 48.1356 57.8353 45.3571 57.7408 45.3146L57.8967 44.901C58.0368 44.9641 72.0365 51.1398 81.658 44.9154C91.4459 38.5826 108.859 44.2354 109.033 44.2932L108.915 44.7213C108.742 44.664 91.4995 39.0679 81.8665 45.3002C78.5791 47.427 74.7973 48.1356 71.2182 48.1356Z" fill="white"/>
<path opacity="0.3" d="M57.8188 44.7638C57.8188 44.7638 71.9385 49.8807 81.7622 44.7638C91.586 39.647 108.974 44.2803 108.974 44.2803" fill="white"/>
<path d="M112.619 58.4535V64.9726C112.619 64.9726 113.097 72.274 115.722 75.9246C115.722 75.9246 120.018 82.5741 120.614 81.1399L119.879 76.4182L117.392 73.8385L116.08 65.7549L115.722 58.4535H112.619Z" fill="#FFB8B8"/>
<path d="M138.991 117.386V122.21L135.411 123.644V118.038L138.991 117.386Z" fill="#FFB8B8"/>
<path d="M131.712 116.864L134.098 122.731L130.757 124.296L130.041 118.559L131.712 116.864Z" fill="#FFB8B8"/>
<path d="M137.678 71.8828C137.678 71.8828 142.451 118.95 140.661 119.081C138.871 119.211 135.411 121.688 135.411 119.994C135.411 118.299 132.666 96.2641 132.666 96.2641L130.041 84.9209V100.567L132.786 118.299C132.786 118.299 130.16 122.08 128.251 119.863L124.194 102.522C124.194 102.522 118.824 76.1854 119.063 74.0993C119.063 74.0993 131.354 62.6257 137.678 71.8828Z" fill="#2F2E41"/>
<path d="M136.724 122.471C136.724 122.471 137.678 120.254 139.826 121.688L141.616 124.035C141.616 124.035 146.231 128.211 142.956 129.106C139.581 130.027 137.559 129.047 137.559 129.047C137.559 129.047 136.962 128.656 136.485 128.656C136.008 128.656 134.934 127.743 134.934 127.482C134.934 127.221 135.292 122.601 135.292 122.601C135.427 122.529 135.579 122.503 135.728 122.526C135.877 122.55 136.016 122.621 136.127 122.732C136.485 123.123 136.724 122.471 136.724 122.471Z" fill="#2F2E41"/>
<path d="M129.683 121.688C129.683 121.688 131.95 119.733 133.024 121.949C133.024 121.949 133.701 122.21 133.78 121.949C133.86 121.688 134.456 121.558 134.456 122.992C134.456 124.426 135.104 128.004 134.508 128.134C133.911 128.264 133.314 128.656 133.434 129.177C133.553 129.699 132.786 129.772 130.041 129.642C127.297 129.511 127.177 128.338 127.177 128.338C127.177 128.338 127.177 126.643 127.893 125.73C128.609 124.818 129.683 121.688 129.683 121.688Z" fill="#2F2E41"/>
<path d="M125.268 36.2887C125.268 36.2887 124.671 41.1128 128.49 42.8078C132.308 44.5027 120.017 50.1091 118.824 46.8496C117.631 43.5901 119.063 42.547 119.063 42.547C119.063 42.547 120.256 41.2432 119.182 37.7229L125.268 36.2887Z" fill="#FFB8B8"/>
<path d="M121.449 39.6786C124.349 39.6786 126.7 37.1102 126.7 33.9418C126.7 30.7735 124.349 28.2051 121.449 28.2051C118.55 28.2051 116.199 30.7735 116.199 33.9418C116.199 37.1102 118.55 39.6786 121.449 39.6786Z" fill="#FFB8B8"/>
<path d="M127.535 44.3724C127.535 44.3724 123.955 46.4585 120.495 44.8939C117.034 43.3293 117.153 50.1091 117.153 50.1091L118.943 55.194L131.354 53.8902L130.518 46.0673L127.535 44.3724Z" fill="#F2F2F2"/>
<path d="M125.757 39.9111C126.392 40.0585 126.989 40.3602 127.504 40.7939C128.018 41.2276 128.437 41.7822 128.729 42.4166L134.456 44.3724L135.888 46.5888L134.218 62.6257C134.218 62.6257 137.32 65.8853 137.32 67.7106C137.32 69.536 141.139 75.7943 139.229 75.012C137.32 74.2297 133.86 71.4917 133.86 71.4917C133.86 71.4917 125.149 71.8828 122.404 74.4904C119.66 77.0981 118.586 76.3158 118.586 76.3158C118.586 76.3158 115.722 62.7561 115.602 60.67C115.483 58.5839 112.142 46.0673 112.142 46.0673L118.108 42.4166L119.628 40.5326L123.836 47.8927L127.655 42.8078C127.655 42.8078 125.768 41.1867 125.757 39.9111Z" fill="#3F3D56"/>
<path d="M137.678 56.6282L138.394 60.8004C138.394 60.8004 141.616 73.8385 141.139 78.2715C141.139 78.2715 141.497 88.1805 139.468 87.007C137.439 85.8336 138.513 78.6626 138.513 78.6626L135.65 65.7549L134.098 58.1928L137.678 56.6282Z" fill="#FFB8B8"/>
<path d="M134.695 45.8065L135.888 46.5888C135.888 46.5888 140.423 56.889 139.349 57.6713C138.275 58.4535 133.621 60.1485 133.621 60.1485L134.695 45.8065Z" fill="#3F3D56"/>
<path d="M115.005 46.0674L112.201 46.0021L111.545 47.2407L112.38 59.8878L116.676 60.9308L115.005 46.0674Z" fill="#3F3D56"/>
<path d="M125.725 29.09L126.671 28.714C126.671 28.714 124.693 26.552 121.94 26.74L122.714 25.8939C122.714 25.8939 120.821 25.1419 119.1 27.116C118.196 28.1537 117.149 29.3734 116.497 30.7475H115.483L115.906 31.6719L114.426 32.5962L115.945 32.4302C115.802 33.2282 115.851 34.0535 116.089 34.8241L116.433 35.8581C116.433 35.8581 117.81 32.8501 117.81 32.4741V33.4141C117.81 33.4141 118.756 32.5681 118.756 32.0041L119.272 32.6621L119.531 31.6281L122.714 32.6621L122.198 31.8161L124.176 32.0981L123.402 31.064C123.402 31.064 125.639 32.2861 125.725 33.3201C125.811 34.3541 126.402 35.702 126.402 35.702L127.118 34.7893C127.118 34.7893 128.22 30.5 125.725 29.09Z" fill="#2F2E41"/>
<path d="M125.865 35.1805C126.095 35.1805 126.282 34.6551 126.282 34.007C126.282 33.359 126.095 32.8336 125.865 32.8336C125.634 32.8336 125.447 33.359 125.447 34.007C125.447 34.6551 125.634 35.1805 125.865 35.1805Z" fill="#FFB8B8"/>
<path d="M8.52095 122.322C11.0646 127.476 16.4631 129.689 16.4631 129.689C16.4631 129.689 17.7375 123.545 15.1939 118.391C12.6503 113.237 7.25178 111.024 7.25178 111.024C7.25178 111.024 5.97733 117.168 8.52095 122.322Z" fill="#3F3D56"/>
<path d="M10.2692 120.627C14.8615 123.645 16.6301 129.641 16.6301 129.641C16.6301 129.641 10.9532 130.743 6.36092 127.724C1.76863 124.706 0 118.71 0 118.71C0 118.71 5.67693 117.608 10.2692 120.627Z" fill="#8854D0"/>
<path opacity="0.3" d="M57.8188 44.131C57.8188 44.131 71.9385 36.0808 81.7622 44.131C91.586 52.1812 108.974 44.8916 108.974 44.8916" fill="white"/>
<path d="M83.4507 126.048C84.694 126.048 85.702 124.946 85.702 123.588C85.702 122.229 84.694 121.128 83.4507 121.128C82.2073 121.128 81.1994 122.229 81.1994 123.588C81.1994 124.946 82.2073 126.048 83.4507 126.048Z" fill="white"/>
</svg>
