<svg id="Capa_1" enable-background="new 0 0 512 512" height="200" viewBox="0 0 512 512" width="200" xmlns="http://www.w3.org/2000/svg"><g><path d="m468.678 185.065c-1.177-2.467-3.667-4.037-6.401-4.037-12.06 0-418.19 0-412.555 0-2.733 0-5.223 1.571-6.401 4.037l-15.409 32.283 12.27 27.969h232.371 199.264l12.27-27.969z" fill="#596c76"/><path d="m27.912 239.595h118.659v247.8h-118.659z" fill="#d8ecfe"/><path d="m242.855 17.03-73.398 74.045v148.519h160.928v-142.439l-79.425-80.125z" fill="#c4573a"/><path d="m262.476 10.303c-3.568-3.599-9.385-3.599-12.953 0l-6.669 6.728 79.424 80.125v142.439h20.265v-148.519z" fill="#a74b30"/><path d="m468.678 185.065c-1.177-2.467-3.668-4.037-6.401-4.037h-22.671c2.733 0 5.223 1.571 6.401 4.037l15.409 32.283-12.27 27.969h22.671l12.27-27.969z" fill="#465a61"/><path d="m365.429 239.595h118.659v247.8h-118.659z" fill="#d8ecfe"/><path d="m461.417 239.595h22.671v247.8h-22.671z" fill="#c4e2ff"/><g><path d="m357.903 117.366c-106.558-107.498-100.918-102.163-101.903-102.163s4.665-5.345-101.903 102.163c-2.955 2.981-7.767 3.001-10.747.047-2.981-2.955-3.002-7.766-.047-10.747l100.824-101.713c6.547-6.604 17.2-6.603 23.747 0l100.824 101.713c2.955 2.981 2.933 7.792-.047 10.747-2.973 2.947-7.785 2.941-10.748-.047z" fill="#7a8c98"/></g><circle cx="256" cy="91.076" fill="#d8ecfe" r="31.898"/><g><path d="m256 99.96c-4.197 0-7.599-3.402-7.599-7.599v-8.547c0-4.197 3.402-7.599 7.599-7.599s7.599 3.402 7.599 7.599v8.547c0 4.197-3.402 7.599-7.599 7.599z" fill="#7a8c98"/></g><path d="m104.389 430.001h-30.905v-28.542c0-8.534 6.918-15.453 15.453-15.453 8.534 0 15.453 6.918 15.453 15.453v28.542z" fill="#465a61"/><g><g><path d="m453.817 305.029c-4.197 0-7.599-3.402-7.599-7.599v-25.331c0-4.197 3.402-7.599 7.599-7.599s7.599 3.402 7.599 7.599v25.331c.001 4.197-3.402 7.599-7.599 7.599z" fill="#465a61"/></g><g><path d="m422.914 305.029c-4.197 0-7.599-3.402-7.599-7.599v-25.331c0-4.197 3.402-7.599 7.599-7.599s7.599 3.402 7.599 7.599v25.331c0 4.197-3.402 7.599-7.599 7.599z" fill="#465a61"/></g><g><path d="m392.01 305.029c-4.197 0-7.599-3.402-7.599-7.599v-25.331c0-4.197 3.402-7.599 7.599-7.599s7.599 3.402 7.599 7.599v25.331c.001 4.197-3.402 7.599-7.599 7.599z" fill="#465a61"/></g></g><g><g><path d="m453.817 363.797c-4.197 0-7.599-3.402-7.599-7.599v-25.331c0-4.197 3.402-7.599 7.599-7.599s7.599 3.402 7.599 7.599v25.331c.001 4.196-3.402 7.599-7.599 7.599z" fill="#465a61"/></g><g><path d="m422.914 363.797c-4.197 0-7.599-3.402-7.599-7.599v-25.331c0-4.197 3.402-7.599 7.599-7.599s7.599 3.402 7.599 7.599v25.331c0 4.196-3.402 7.599-7.599 7.599z" fill="#465a61"/></g><g><path d="m392.01 363.797c-4.197 0-7.599-3.402-7.599-7.599v-25.331c0-4.197 3.402-7.599 7.599-7.599s7.599 3.402 7.599 7.599v25.331c.001 4.196-3.402 7.599-7.599 7.599z" fill="#465a61"/></g></g><g><g><path d="m119.84 305.029c-4.197 0-7.599-3.402-7.599-7.599v-25.331c0-4.197 3.402-7.599 7.599-7.599s7.599 3.402 7.599 7.599v25.331c0 4.197-3.402 7.599-7.599 7.599z" fill="#465a61"/></g><g><path d="m88.937 305.029c-4.197 0-7.599-3.402-7.599-7.599v-25.331c0-4.197 3.402-7.599 7.599-7.599s7.599 3.402 7.599 7.599v25.331c0 4.197-3.402 7.599-7.599 7.599z" fill="#465a61"/></g><g><path d="m58.033 305.029c-4.197 0-7.599-3.402-7.599-7.599v-25.331c0-4.197 3.402-7.599 7.599-7.599s7.599 3.402 7.599 7.599v25.331c0 4.197-3.402 7.599-7.599 7.599z" fill="#465a61"/></g></g><g><g><path d="m119.84 363.797c-4.197 0-7.599-3.402-7.599-7.599v-25.331c0-4.197 3.402-7.599 7.599-7.599s7.599 3.402 7.599 7.599v25.331c0 4.196-3.402 7.599-7.599 7.599z" fill="#465a61"/></g><g><path d="m88.937 363.797c-4.197 0-7.599-3.402-7.599-7.599v-25.331c0-4.197 3.402-7.599 7.599-7.599s7.599 3.402 7.599 7.599v25.331c0 4.196-3.402 7.599-7.599 7.599z" fill="#465a61"/></g><g><path d="m58.033 363.797c-4.197 0-7.599-3.402-7.599-7.599v-25.331c0-4.197 3.402-7.599 7.599-7.599s7.599 3.402 7.599 7.599v25.331c0 4.196-3.402 7.599-7.599 7.599z" fill="#465a61"/></g></g><g><path d="m256 217.348h-235.069c-2.238 0-4.053 1.815-4.053 4.053v19.863c0 2.238 1.815 4.053 4.053 4.053 11.247 0 478.025 0 470.138 0 2.238 0 4.053-1.815 4.053-4.053v-19.863c0-2.238-1.815-4.053-4.053-4.053z" fill="#9facba"/><path d="m471.354 217.348v27.969h19.715c2.238 0 4.053-1.815 4.053-4.053v-19.864c0-2.238-1.815-4.053-4.053-4.053h-19.715z" fill="#8d9ca8"/></g><g><path d="m357.903 117.366c-106.558-107.498-100.918-102.163-101.903-102.163s4.665-5.345-101.903 102.163c-2.955 2.981-7.767 3.001-10.747.047-2.981-2.955-3.002-7.766-.047-10.747l100.824-101.713c6.547-6.604 17.2-6.603 23.747 0l100.824 101.713c2.955 2.981 2.933 7.792-.047 10.747-2.973 2.947-7.785 2.941-10.748-.047z" fill="#7a8c98"/></g><path d="m347.191 154.74c-1.996 0-191.334 0-194.54 0-3.358 0-6.079 2.722-6.079 6.079v326.575h206.698v-326.574c0-3.358-2.722-6.08-6.079-6.08z" fill="#dd7f66"/><path d="m359.349 154.74h-20.265c3.358 0 6.079 2.722 6.079 6.079v326.575h20.265v-326.574c.001-3.358-2.721-6.08-6.079-6.08z" fill="#d6694b"/><path d="m241.63 391.006h167.447v25.331h-167.447z" fill="#eaf6ff" transform="matrix(0 1 -1 0 729.025 78.318)"/><g fill="#465a61"><path d="m285.346 463.077h-58.693v-55.165c0-16.207 13.139-29.346 29.346-29.346 16.207 0 29.346 13.139 29.346 29.346v55.165z"/><path d="m206.616 257.855h-33.106v-42.214c0-9.142 7.411-16.553 16.553-16.553 9.142 0 16.553 7.411 16.553 16.553z"/><path d="m272.553 257.855h-33.106v-42.214c0-9.142 7.411-16.553 16.553-16.553 9.142 0 16.553 7.411 16.553 16.553z"/><path d="m338.49 257.855h-33.106v-42.214c0-9.142 7.411-16.553 16.553-16.553 9.142 0 16.553 7.411 16.553 16.553z"/></g><path d="m323.834 319.948h14.185v167.447h-14.185z" fill="#d8ecfe"/><path d="m103.884 391.006h167.447v25.331h-167.447z" fill="#eaf6ff" transform="matrix(0 1 -1 0 591.278 216.064)"/><path d="m186.087 319.948h14.185v167.447h-14.185z" fill="#d8ecfe"/><path d="m146.571 307.802h208.725v34.636h-208.725z" fill="#9facba"/><path d="m345.164 307.802v34.636h20.265v-34.636z" fill="#8d9ca8"/><path d="m254.499 353.291c-15.378 0-27.845-12.467-27.845-27.845v-31.015c0-2.798 2.268-5.066 5.066-5.066h45.558c2.798 0 5.066 2.268 5.066 5.066v31.015c0 15.379-12.467 27.845-27.845 27.845z" fill="#f8e883"/><path d="m363.352 445.139c-14.832 0-218.036 0-228.888 0-2.826 0-5.118 2.291-5.118 5.118v44.563c0 2.826 2.291 5.118 5.118 5.118h228.887c2.826 0 5.118-2.291 5.118-5.118v-44.563c-.001-2.826-2.291-5.117-5.117-5.118z" fill="#9facba"/><path d="m377.536 445.139h-22.291c2.826 0 5.118 2.291 5.118 5.118v44.563c0 2.826-2.291 5.118-5.118 5.118h22.291c2.826 0 5.118-2.291 5.118-5.118v-44.563c0-2.827-2.292-5.118-5.118-5.118z" fill="#8d9ca8"/><path d="m485.496 470.458c-3.127 0-466.527 0-475.204 0-3.358 0-6.079 2.722-6.079 6.079v29.384c0 3.358 2.722 6.079 6.079 6.079h475.204c3.358 0 6.079-2.722 6.079-6.079v-29.384c.001-3.358-2.721-6.079-6.079-6.079z" fill="#596c76"/><path d="m501.708 470.458h-22.291c3.358 0 6.079 2.722 6.079 6.079v29.384c0 3.358-2.722 6.079-6.079 6.079h22.291c3.358 0 6.079-2.722 6.079-6.079v-29.384c0-3.358-2.722-6.079-6.079-6.079z" fill="#465a61"/><path d="m438.367 430.001h-30.905v-28.542c0-8.534 6.918-15.453 15.453-15.453 8.534 0 15.453 6.918 15.453 15.453v28.542z" fill="#465a61"/></g></svg>