<svg width="240" height="174" viewBox="0 0 240 174" fill="none" xmlns="http://www.w3.org/2000/svg">
<g clip-path="url(#clip0)">
<path opacity="0.1" d="M120 174C186.274 174 240 151.192 240 123.057C240 94.9216 186.274 72.1135 120 72.1135C53.7258 72.1135 0 94.9216 0 123.057C0 151.192 53.7258 174 120 174Z" fill="#8854D0"/>
<g opacity="0.8">
<path opacity="0.8" d="M87.2083 10.3723C89.2426 14.2541 90.8034 25.5594 91.2384 28.966L94.8748 28.8651C94.6867 25.9383 90.4563 14.0339 89.2803 10.7675C88.6259 10.6279 87.9274 10.4916 87.2083 10.3723Z" fill="#65617D"/>
<path opacity="0.8" d="M41.8236 7.84654L41.7808 10.934L43.3915 10.9754L43.4343 7.88794L41.8236 7.84654Z" fill="#DCE0ED"/>
<path opacity="0.1" d="M41.8236 7.84654L41.8097 8.85181C41.9229 8.89897 42.0405 8.92366 42.1589 8.9251L43.4197 8.94288L43.4344 7.88793L41.8236 7.84654Z" fill="black"/>
<path opacity="0.8" d="M44.2236 0.0395317L42.7028 0.000449388C42.3396 -0.00878999 41.9826 0.129634 41.6776 0.398014C41.3725 0.666394 41.1333 1.05252 40.9904 1.50699C40.5243 2.98736 40.1144 5.34991 41.0724 7.74122C41.1794 8.00839 41.3369 8.23188 41.5285 8.38865C41.7202 8.54542 41.9391 8.6298 42.1627 8.63307L44.1039 8.66033L44.2236 0.0395317Z" fill="#DCE0ED"/>
<path opacity="0.8" d="M45.7924 4.39179C45.8254 2.01122 45.123 0.0626481 44.2236 0.0395327C43.3241 0.0164173 42.5682 1.92751 42.5352 4.30808C42.5021 6.68865 43.2045 8.63722 44.1039 8.66034C45.0034 8.68345 45.7593 6.77236 45.7924 4.39179Z" fill="#F0F0F4"/>
<path opacity="0.8" d="M56.1315 8.25079L56.094 10.9539L57.7047 10.9953L57.7422 8.29219L56.1315 8.25079Z" fill="#DCE0ED"/>
<path opacity="0.1" d="M56.1315 8.25078L56.1196 9.10994C56.2328 9.1571 56.3504 9.18178 56.4688 9.18322L57.7296 9.20101L57.7422 8.29217L56.1315 8.25078Z" fill="black"/>
<path opacity="0.8" d="M58.5315 0.443783L57.0107 0.4047C56.6475 0.395462 56.2905 0.533889 55.9855 0.802269C55.6804 1.07065 55.4412 1.45678 55.2983 1.91124C54.8322 3.39162 54.4223 5.75416 55.3803 8.14547C55.4873 8.41265 55.6448 8.63614 55.8364 8.79291C56.0281 8.94968 56.247 9.03405 56.4706 9.03732L58.4118 9.06459L58.5315 0.443783Z" fill="#DCE0ED"/>
<path opacity="0.8" d="M60.1 4.79603C60.133 2.41547 59.4306 0.466902 58.5312 0.443791C57.6318 0.420679 56.8758 2.33177 56.8428 4.71234C56.8098 7.09291 57.5121 9.04147 58.4116 9.06458C59.311 9.08769 60.0669 7.1766 60.1 4.79603Z" fill="#F0F0F4"/>
<path opacity="0.8" d="M58.1032 2.00891C58.1032 2.00891 58.7022 2.15514 58.3748 3.22615C58.2018 3.74628 58.0732 4.29174 57.9917 4.8518C57.9917 4.8518 57.385 5.26143 57.4286 3.85603C57.4721 2.45062 58.1032 2.00891 58.1032 2.00891Z" fill="#DCE0ED"/>
<path opacity="0.8" d="M127.792 65.4168C127.9 57.5892 123.734 51.1343 118.485 50.9994C113.237 50.8645 108.894 57.1008 108.786 64.9284C108.677 72.756 112.844 79.2109 118.092 79.3458C123.34 79.4807 127.683 73.2445 127.792 65.4168Z" fill="#636780"/>
<path opacity="0.1" d="M114.912 51.792C119.879 52.375 123.733 58.6346 123.628 66.1662C123.544 72.2371 120.913 77.3498 117.287 79.2764C112.32 78.6935 108.467 72.4338 108.571 64.9022C108.656 58.8314 111.287 53.7186 114.912 51.792Z" fill="black"/>
<path opacity="0.8" d="M52.0535 32.4829C52.1584 24.9242 48.79 18.708 44.5299 18.5985C40.2699 18.489 36.7314 24.5278 36.6265 32.0864C36.5216 39.6451 39.89 45.8613 44.15 45.9708C48.4101 46.0803 51.9485 40.0415 52.0535 32.4829Z" fill="#636780"/>
<path opacity="0.1" d="M46.6779 19.2272C49.8538 20.9776 52.1168 26.285 52.0305 32.5011C51.9383 39.1438 49.194 44.612 45.6388 45.7654C42.4629 44.015 40.1999 38.7077 40.2862 32.4916C40.3784 25.8488 43.1226 20.3807 46.6779 19.2272Z" fill="black"/>
<path opacity="0.8" d="M73.3553 30.107L73.2811 25.1354C73.2811 25.1354 74.0267 23.0107 74.7452 22.8343C75.4638 22.6579 77.112 22.5784 77.112 22.5784C77.112 22.5784 78.3015 29.7469 77.4128 31.8678C76.524 33.9888 73.3553 30.107 73.3553 30.107Z" fill="#65617D"/>
<path opacity="0.1" d="M73.3553 30.107L73.2811 25.1354C73.2811 25.1354 74.0267 23.0107 74.7452 22.8343C75.4638 22.6579 77.112 22.5784 77.112 22.5784C77.112 22.5784 78.3015 29.7469 77.4128 31.8678C76.524 33.9888 73.3553 30.107 73.3553 30.107Z" fill="black"/>
<path opacity="0.8" d="M86.5705 29.9107C86.5705 29.9107 87.1099 23.0335 84.329 22.838C83.9712 22.8129 83.6134 22.792 83.2575 22.7358C81.3327 22.4322 76.0816 21.745 76.6889 23.3959C76.6889 23.3959 77.8585 29.4188 76.9785 30.9066L86.5705 29.9107Z" fill="#65617D"/>
<path opacity="0.8" d="M46.9668 41.6703L43.2333 41.7206C43.2333 41.7206 42.7188 32.3526 42.5142 31.6165C42.3096 30.8804 42.2509 27.3709 42.9559 26.8774C43.661 26.384 46.0051 25.823 46.0051 25.823L47.6492 31.2003L47.7165 36.0256L46.9668 41.6703Z" fill="#65617D"/>
<path opacity="0.1" d="M46.9668 41.6703L43.2333 41.7206C43.2333 41.7206 42.7188 32.3526 42.5142 31.6165C42.3096 30.8804 42.2509 27.3709 42.9559 26.8774C43.661 26.384 46.0051 25.823 46.0051 25.823L47.6492 31.2003L47.7165 36.0256L46.9668 41.6703Z" fill="black"/>
<path opacity="0.8" d="M56.2022 26.3774L56.2333 25.3364C56.2357 25.2543 56.2258 25.1724 56.2041 25.0958C56.1824 25.0191 56.1493 24.9494 56.107 24.8908C56.0647 24.8322 56.014 24.786 55.958 24.7552C55.9021 24.7243 55.8421 24.7094 55.7817 24.7113C53.9308 24.77 47.1951 25.0356 46.0052 25.823C46.0052 25.823 47.1127 38.8969 45.6468 41.9653L45.985 52.425L62.4912 51.1683L56.2022 26.3774Z" fill="#65617D"/>
<path opacity="0.1" d="M57.7193 9.94183C57.2628 9.86871 56.7193 9.7875 56.1113 9.70757L56.094 10.9539L57.7047 10.9953L57.7193 9.94183Z" fill="black"/>
<path opacity="0.1" d="M41.783 10.7761L41.7808 10.9339L43.3915 10.9753L43.4047 10.0271C42.8433 10.1839 42.2985 10.4355 41.783 10.7761Z" fill="black"/>
<path opacity="0.8" d="M33.2712 41.6472L35.7048 41.758L40.9073 29.4498L41.7757 27.3951L41.2044 22.1186L40.6918 23.38L33.2712 41.6472Z" fill="#DCE0ED"/>
<path opacity="0.8" d="M55.4964 26.919L56.47 28.9905L59.5424 23.5559L60.9486 21.0662L60.1461 19.5359L59.5013 20.5599L55.4964 26.919Z" fill="#DCE0ED"/>
<path opacity="0.1" d="M59.5012 20.5599C59.4954 20.665 59.4896 20.773 59.4828 20.8825L59.5423 23.5559L60.9486 21.0663L60.146 19.5358L59.5012 20.5599Z" fill="black"/>
<path opacity="0.1" d="M40.6918 23.38L40.9073 29.4498L41.7757 27.3951L41.2044 22.1186L40.6918 23.38Z" fill="black"/>
<path opacity="0.8" d="M62.2972 24.512C62.2972 24.512 63.6685 12.327 59.3187 10.3881C59.2629 10.3637 59.2056 10.3462 59.1475 10.3356C58.1429 10.1443 48.7768 8.43047 43.8787 10.0553C43.8787 10.0553 40.5404 10.6516 40.5424 13.0878L41.5969 42.8844L43.9951 42.946L43.4807 23.2489C43.4807 23.2489 42.4543 14.6473 44.3595 14.1116C46.2646 13.5759 54.9044 12.8235 57.9306 14.0706C57.9306 14.0706 60.1592 13.4458 59.6979 20.8885L59.7856 24.886L62.2972 24.512Z" fill="#DCE0ED"/>
<path opacity="0.8" d="M54.945 27.9529C54.9295 27.63 54.9754 27.3071 55.0782 27.0153C55.181 26.7236 55.3373 26.4728 55.5321 26.2871C56.2128 25.6103 58.3007 24.1657 58.3007 24.1657L58.9708 24.256L60.8899 31.1021L60.5554 45.5276L56.8466 51.5347L54.945 27.9529Z" fill="#65617D"/>
<path opacity="0.1" d="M54.945 27.9529C54.9295 27.63 54.9754 27.3071 55.0782 27.0153C55.181 26.7236 55.3373 26.4728 55.5321 26.2871C56.2128 25.6103 58.3007 24.1657 58.3007 24.1657L58.9708 24.256L60.8899 31.1021L60.5554 45.5276L56.8466 51.5347L54.945 27.9529Z" fill="black"/>
<path opacity="0.8" d="M69.1957 43.4475L69.3296 28.6393C69.3296 28.6393 69.7315 22.9003 67.2094 22.7381C67.2094 22.7381 61.257 22.6441 58.6564 23.7199C58.5742 23.7535 58.4986 23.8117 58.4351 23.89C58.3715 23.9684 58.3216 24.065 58.2889 24.1729C58.2562 24.2808 58.2416 24.3972 58.2461 24.5137C58.2506 24.6303 58.2741 24.744 58.3149 24.8466C58.8127 26.0792 59.636 29.3289 59.9401 37.6187L59.8169 46.4952L69.1957 43.4475Z" fill="#65617D"/>
<path opacity="0.8" d="M56.5099 52.5857L67.3428 52.5206L67.3536 52.5209L72.6776 52.4898L72.1945 42.7937L69.2396 42.864L59.8042 45.4716L56.8466 51.5347L56.5099 52.5857Z" fill="#65617D"/>
<path opacity="0.1" d="M56.5099 52.5857L67.3428 52.5206L67.3536 52.5209L72.6776 52.4898L72.1945 42.7937L69.2396 42.864L59.8042 45.4716L56.8466 51.5347L56.5099 52.5857Z" fill="black"/>
<path opacity="0.8" d="M56.5099 52.5857L67.3428 52.5206L67.6111 46.0378L59.8042 45.4717L56.8466 51.5347L56.5099 52.5857Z" fill="#65617D"/>
<path opacity="0.1" d="M67.3535 52.521L72.6776 52.4897L72.1945 42.7937C72.1945 42.7937 70.4799 46.3673 67.6111 46.0378L67.3535 52.521Z" fill="white"/>
<path opacity="0.8" d="M29.0508 59.3712C29.227 62.1529 30.6827 61.7518 30.6827 61.7518L30.9538 61.7252L33.6407 61.4624L33.5932 57.1493C32.6839 57.0548 31.7696 57.1059 30.8691 57.3014C29.859 57.5591 28.9723 58.1356 29.0508 59.3712Z" fill="#DCE0ED"/>
<path opacity="0.1" d="M29.0508 59.3712C29.227 62.1529 30.6827 61.7518 30.6827 61.7518L30.9538 61.7252C31.2532 61.1104 31.412 60.3886 31.4101 59.6511C31.4443 58.8047 31.2521 57.97 30.8691 57.3014C29.859 57.559 28.9723 58.1355 29.0508 59.3712Z" fill="black"/>
<path opacity="0.8" d="M66.4887 32.0986C66.4261 36.6042 68.3626 40.3078 70.8138 40.3708C73.265 40.4338 75.3029 36.8324 75.3654 32.3268C75.4279 27.8212 73.4915 24.1176 71.0403 24.0546C68.589 23.9916 66.5512 27.5931 66.4887 32.0986ZM68.1635 32.6776C68.2089 29.4094 69.76 26.7989 71.6281 26.8469C73.4962 26.8949 74.9738 29.5832 74.9284 32.8515C74.8831 36.1197 73.3319 38.7302 71.4638 38.6822C69.5958 38.6342 68.1181 35.9459 68.1635 32.6776V32.6776Z" fill="#636780"/>
<path opacity="0.8" d="M70.6774 34.7155L68.5629 37.4383L67.8457 34.9351L70.8855 32.6259L70.6774 34.7155Z" fill="#636780"/>
<path opacity="0.8" d="M67.9984 7.16003L66.1868 7.41303L65.5013 8.47982L66.4315 14.7305L68.4523 24.8145L69.7741 31.7359L70.7132 35.9423L71.2716 41.4918L71.8541 45.3119L73.7242 47.9544L77.6861 41.8295L78.3503 39.771L79.934 35.5741L76.0296 32.9656L71.7165 32.3359L69.7818 25.1947L68.244 16.9391L67.9984 7.16003Z" fill="#8854D0"/>
<path opacity="0.8" d="M104.15 37.7681L106.138 64.8117L76.417 62.3425L80.037 49.183L85.8343 44.2647L72.7297 44.2205L72.761 36.8154L78.08 35.393L88.7625 34.4983L96.787 34.2171L104.4 37.8235" fill="#65617D"/>
<path opacity="0.1" d="M104.15 37.7681L106.138 64.8117L76.417 62.3425L80.037 49.183L85.8343 44.2647L72.7297 44.2205L72.761 36.8154L78.08 35.393L88.7625 34.4983L96.787 34.2171L104.4 37.8235" fill="black"/>
<path opacity="0.8" d="M63.1397 63.615C63.0466 70.3201 64.599 76.4661 69.1512 75.9145C74.8833 75.8947 75.4067 70.6378 75.4997 63.9327C75.5928 57.2276 72.8952 52.1664 69.482 52.0787C66.0689 51.991 63.2328 56.9099 63.1397 63.615Z" fill="#636780"/>
<path opacity="0.1" d="M63.1038 63.6255C63.1758 58.4343 64.8923 54.3146 67.2476 52.7592C70.2325 53.6114 72.4707 58.3595 72.3858 64.4769C72.3095 69.9718 71.9435 74.4932 68.6593 75.9576C64.4592 76.055 63.0139 70.1014 63.1038 63.6255Z" fill="black"/>
<path opacity="0.8" d="M57.4481 52.9416L59.1574 55.7095L56.0228 54.894L53.7128 51.8941L51.6954 46.1345L48.7751 43.5946L41.5137 44.7484L34.806 44.922L32.3731 41.8679L35.1406 41.4279L37.9372 41.4135L44.9608 41.3777L53.3196 41.2898L54.9488 47.5586L56.1919 51.8712L57.4481 52.9416Z" fill="#8854D0"/>
<path opacity="0.8" d="M33.2558 63.4258C33.3945 63.7217 38.0703 64.8168 38.0703 64.8168L50.9822 68.3643L73.2403 69.3748L75.8948 66.4218L77.2625 66.7887L77.3181 66.8033L95.5865 71.7031L95.8858 71.6524L100.896 70.812L127.061 66.4212L126.841 61.2588L126.71 58.2122L126.44 51.8864L126.212 50.223L123.892 49.874L122.809 49.7102L105.901 47.1607L103.691 46.8276L102.451 46.6408L90.384 44.0899L72.7301 44.2209L72.7609 36.8154L66.1868 7.41295C64.6433 7.71385 64.6591 9.1277 64.6591 9.1277L70.2185 36.7983L70.0559 53.7013C57.675 55.0816 57.3275 51.4083 55.3549 52.5927L53.1352 42.2557L32.3734 41.8683C31.5309 43.2104 33.2558 63.4258 33.2558 63.4258Z" fill="#65617D"/>
<path opacity="0.8" d="M84.9751 49.4073L78.1219 68.4768L75.8889 69.3932L75.3958 66.2628L78.0136 55.6597L80.6406 49.5395L84.9751 49.4073Z" fill="#65617D"/>
<path opacity="0.15" d="M84.9751 49.4073L78.1219 68.4768L75.8889 69.3932L75.3958 66.2628L78.0136 55.6597L80.6406 49.5395L84.9751 49.4073Z" fill="black"/>
<path opacity="0.8" d="M100.895 71.0106C101.036 60.8428 95.8101 52.4629 89.2226 52.2936C82.6351 52.1244 77.1805 60.2298 77.0394 70.3977C76.8983 80.5655 82.1241 88.9454 88.7117 89.1147C95.2992 89.2839 100.754 81.1785 100.895 71.0106Z" fill="#636780"/>
<path opacity="0.1" d="M84.9526 53.3329C91.1863 54.0845 96.0195 62.2111 95.8837 71.9944C95.7742 79.8803 92.4683 86.5245 87.9169 89.0311C81.6831 88.2795 76.85 80.1529 76.9858 70.3696C77.0952 62.4836 80.4012 55.8395 84.9526 53.3329Z" fill="black"/>
<path opacity="0.8" d="M121.387 39.3323L121.925 43.1348L123.571 54.7843L131.353 53.9611C131.353 53.9611 131.845 52.0253 130.638 51.2635C130.638 51.2635 130.33 44.659 128.923 42.5458C128.773 42.3052 128.582 42.1168 128.367 41.9966L121.387 39.3323Z" fill="#65617D"/>
<path opacity="0.1" d="M121.925 43.1348L123.571 54.7843L131.353 53.9611C131.353 53.9611 131.845 52.0253 130.638 51.2635C130.638 51.2635 130.33 44.659 128.924 42.5458L121.925 43.1348Z" fill="white"/>
<path opacity="0.8" d="M103.869 39.9053C102.836 42.1677 104.976 63.3206 104.976 63.3206L124.114 59.5238L123.69 41.0476C123.342 37.725 121.916 37.2996 121.916 37.2996C115.251 32.4992 99.8019 31.1272 99.8019 31.1272C85.6895 31.4954 72.7609 36.8154 72.7609 36.8154C88.8426 33.8668 103.869 39.9053 103.869 39.9053Z" fill="#65617D"/>
<path opacity="0.1" d="M104.976 63.3206L124.114 59.5238L123.69 41.0476C123.342 37.725 121.916 37.2996 121.916 37.2996C121.916 37.2996 108.017 35.1387 103.869 39.9053C102.836 42.1677 104.976 63.3206 104.976 63.3206Z" fill="black"/>
<path opacity="0.8" d="M107.01 62.1543L123.013 58.9066L122.663 43.143C122.373 40.3084 121.18 39.9461 121.18 39.9461C121.18 39.9461 109.559 38.1085 106.09 42.1771C105.225 44.1079 107.01 62.1543 107.01 62.1543Z" fill="#65617D"/>
<path opacity="0.1" d="M110.685 49.2886C110.727 46.3028 109.783 43.8572 108.577 43.8262C107.371 43.7952 106.36 46.1905 106.319 49.1763C106.277 52.1621 107.221 54.6077 108.427 54.6387C109.633 54.6697 110.644 52.2744 110.685 49.2886Z" fill="black"/>
<path opacity="0.8" d="M110.688 49.1424C110.729 46.1566 109.785 43.7111 108.579 43.6801C107.373 43.6491 106.362 46.0444 106.321 49.0302C106.279 52.016 107.223 54.4616 108.429 54.4926C109.635 54.5236 110.646 52.1282 110.688 49.1424Z" fill="#DCE0ED"/>
<path opacity="0.8" d="M108.273 45.0851C108.273 45.0851 109.165 45.303 108.678 46.8983C108.42 47.673 108.228 48.4855 108.107 49.3197C108.107 49.3197 107.203 49.9299 107.268 47.8365C107.333 45.7431 108.273 45.0851 108.273 45.0851Z" fill="#F0F0F4"/>
<path opacity="0.1" d="M122.276 47.4426C122.315 44.6526 121.433 42.3674 120.306 42.3385C119.18 42.3095 118.235 44.5478 118.196 47.3378C118.157 50.1278 119.039 52.413 120.166 52.442C121.293 52.4709 122.238 50.2326 122.276 47.4426Z" fill="black"/>
<path opacity="0.8" d="M122.279 47.2965C122.317 44.5065 121.435 42.2213 120.308 42.1923C119.182 42.1634 118.237 44.4017 118.198 47.1917C118.159 49.9817 119.041 52.2669 120.168 52.2959C121.295 52.3248 122.24 50.0865 122.279 47.2965Z" fill="#DCE0ED"/>
<path opacity="0.8" d="M120.007 43.2429C120.007 43.2429 120.9 43.4607 120.412 45.0561C120.154 45.8308 119.963 46.6433 119.841 47.4775C119.841 47.4775 118.938 48.0877 119.002 45.9943C119.067 43.9009 120.007 43.2429 120.007 43.2429Z" fill="#F0F0F4"/>
<path opacity="0.1" d="M111.072 44.7181C111.187 46.7192 111.697 61.5434 111.697 61.5434L112.916 61.2985L113.593 61.1639L114.496 60.9824L114.605 60.9604L118.16 60.2478L117.678 44.5239C117.663 44.0189 117.505 43.5413 117.238 43.1903C116.97 42.8392 116.614 42.6415 116.243 42.638C116.207 42.6386 116.171 42.6391 116.134 42.6425C115.889 42.6655 115.624 42.6937 115.349 42.7276C115.232 42.7421 115.115 42.7567 114.996 42.774C114.655 42.8208 114.302 42.879 113.957 42.9476C113.78 42.984 113.607 43.0219 113.435 43.0628C113.145 43.1343 112.865 43.2133 112.606 43.3046C112.43 43.3659 112.262 43.4332 112.109 43.5067C111.464 43.8059 111.041 44.2013 111.072 44.7181Z" fill="black"/>
<path opacity="0.8" d="M116.243 42.638L116.691 60.308L117.086 60.2699L116.642 42.7184C116.512 42.6664 116.378 42.6394 116.243 42.638Z" fill="#65617D"/>
<path opacity="0.8" d="M114.996 42.774L115.398 60.6154L116.007 60.631L115.349 42.7276C115.232 42.7421 115.115 42.7567 114.996 42.774Z" fill="#65617D"/>
<path opacity="0.8" d="M113.435 43.0628L114.211 60.9751L114.605 60.9852L114.605 60.9604L113.957 42.9476C113.78 42.984 113.607 43.0219 113.435 43.0628Z" fill="#65617D"/>
<path opacity="0.8" d="M112.109 43.5067L112.916 61.2985L112.917 61.3321L113.598 61.2517L113.593 61.1639L112.606 43.3046C112.43 43.3658 112.262 43.4332 112.109 43.5067Z" fill="#65617D"/>
<path opacity="0.1" d="M126.477 57.6361C126.477 57.6361 127.92 48.4282 124.92 47.876C121.92 47.3239 112.027 48.0563 112.27 51.8628C112.513 55.6694 112.755 61.4493 112.755 61.4493L114.803 60.8807C114.803 60.8807 113.394 52.1475 115.788 51.8802C118.181 51.6128 124.046 50.85 124.046 50.85C124.046 50.85 125.635 50.5254 124.617 58.1365L126.477 57.6361Z" fill="black"/>
<path opacity="0.8" d="M126.464 58.5129C126.464 58.5129 127.916 48.7204 124.916 48.1682C121.916 47.6161 112.023 48.3485 112.266 52.1551C112.509 55.9617 112.751 61.7415 112.751 61.7415L114.799 61.173C114.799 61.173 113.39 52.4398 115.784 52.1724C118.177 51.9051 124.042 51.1422 124.042 51.1422C124.042 51.1422 125.623 51.4021 124.604 59.0132L126.464 58.5129Z" fill="#DCE0ED"/>
<path opacity="0.8" d="M73.2403 69.3748L75.889 69.3932C77.9827 57.8516 81.2687 50.7256 81.2687 50.7256C82.3533 49.9729 94.0918 50.3725 94.0918 50.3725C95.3055 50.696 95.5546 55.9645 95.5546 55.9645C95.5546 55.9645 94.4993 57.1549 95.4904 57.9609C95.9333 58.3202 97.4057 58.4238 99.105 58.3491C101.215 58.2542 103.676 57.8819 104.951 57.3753C107.256 56.4596 105.456 54.6111 105.456 54.6111C105.456 54.6111 105.142 54.0183 104.972 50.7983C104.85 48.9179 104.43 47.0959 103.739 45.4592C103.643 45.2331 103.582 45.1103 103.582 45.1103C103.464 44.9513 103.323 44.8264 103.168 44.743C100.158 42.9408 85.2618 44.2009 85.2618 44.2009L79.7168 46.4468C79.5632 46.5262 79.3207 47.0491 79.019 47.8862C77.2068 52.9248 73.2403 69.3748 73.2403 69.3748Z" fill="#65617D"/>
<path opacity="0.1" d="M73.2403 69.3748L75.889 69.3932C77.9827 57.8516 81.2687 50.7256 81.2687 50.7256C82.3533 49.9729 94.0918 50.3725 94.0918 50.3725C95.3055 50.696 95.5546 55.9645 95.5546 55.9645C95.5546 55.9645 94.4993 57.1549 95.4904 57.9609C95.9333 58.3202 97.4057 58.4238 99.105 58.3491C101.215 58.2542 103.676 57.8819 104.951 57.3753C107.256 56.4596 105.456 54.6111 105.456 54.6111C105.456 54.6111 105.142 54.0183 104.972 50.7983C104.85 48.9179 104.43 47.0959 103.739 45.4592C103.643 45.2331 103.582 45.1103 103.582 45.1103C103.464 44.9513 103.323 44.8264 103.168 44.743C100.158 42.9408 85.2618 44.2009 85.2618 44.2009L79.7168 46.4468C79.5632 46.5262 79.3207 47.0491 79.019 47.8862C77.2068 52.9248 73.2403 69.3748 73.2403 69.3748Z" fill="black"/>
<path opacity="0.8" d="M79.019 47.8862C84.1451 45.327 98.1481 47.1149 98.1481 47.1149C99.6615 45.4202 102.465 45.3783 103.739 45.4592C103.643 45.2331 103.582 45.1103 103.582 45.1103C103.464 44.9513 103.323 44.8263 103.168 44.743C100.158 42.9408 85.2618 44.2009 85.2618 44.2009L79.7168 46.4468C79.5632 46.5262 79.3207 47.0491 79.019 47.8862Z" fill="#65617D"/>
<path opacity="0.8" d="M97.3143 47.8243C97.6155 49.342 98.8557 55.4164 98.8557 55.4164C98.9801 56.3866 99.0633 57.3658 99.105 58.3491C101.215 58.2542 103.676 57.8819 104.951 57.3753C107.256 56.4596 105.456 54.6111 105.456 54.6111C105.456 54.6111 105.142 54.0183 104.972 50.7983C104.842 48.7805 104.366 46.8322 103.582 45.1103C103.464 44.9513 103.323 44.8264 103.168 44.743C101.17 45.3304 97.0864 46.6754 97.3143 47.8243Z" fill="#65617D"/>
<path opacity="0.1" d="M97.3143 47.8243C97.6155 49.342 98.8557 55.4164 98.8557 55.4164C98.9801 56.3866 99.0633 57.3658 99.105 58.3491C101.215 58.2542 103.676 57.8819 104.951 57.3753C107.256 56.4596 105.456 54.6111 105.456 54.6111C105.456 54.6111 105.142 54.0183 104.972 50.7983C104.842 48.7805 104.366 46.8322 103.582 45.1103C103.464 44.9513 103.323 44.8264 103.168 44.743C101.17 45.3304 97.0864 46.6754 97.3143 47.8243Z" fill="white"/>
<path opacity="0.8" d="M66.1868 7.41296L72.7609 36.8154L100.174 31.4174L96.552 13.7477C96.552 13.7477 95.9903 9.71366 94.5716 9.38486C94.5716 9.38486 72.6575 3.63272 66.1868 7.41296ZM69.2379 12.0226C68.3531 8.05331 81.377 10.0324 81.377 10.0324C83.1305 9.84798 85.2438 10.0485 87.2083 10.3723C87.9274 10.4916 88.6259 10.628 89.2803 10.7676C90.7401 11.0799 91.9794 11.4128 92.7209 11.6234C93.1927 11.7568 93.4633 11.8412 93.4633 11.8412C96.0521 13.004 97.3257 27.6535 97.3257 27.6535C97.5192 29.1932 96.1815 28.83 96.1815 28.83L96.0945 28.8321L94.8748 28.8651L91.2384 28.966L73.5076 29.4531C72.4627 29.2801 72.3249 27.5957 72.3249 27.5957C71.7779 26.3757 69.238 12.0226 69.238 12.0226H69.2379Z" fill="#65617D"/>
<path opacity="0.8" d="M96.0945 28.8321L96.1815 28.83C96.1815 28.83 97.5192 29.1932 97.3257 27.6535C97.3257 27.6535 96.0521 13.004 93.4633 11.8412C93.4633 11.8412 93.1927 11.7568 92.7209 11.6233C93.632 14.1579 96.5462 22.8318 96.0945 28.8321Z" fill="#65617D"/>
<path opacity="0.1" d="M96.0945 28.8321L96.1815 28.83C96.1815 28.83 97.5192 29.1932 97.3257 27.6535C97.3257 27.6535 96.0521 13.004 93.4633 11.8412C93.4633 11.8412 93.1927 11.7568 92.7209 11.6233C93.632 14.1579 96.5462 22.8318 96.0945 28.8321Z" fill="black"/>
<path opacity="0.1" d="M93.189 64.8082C93.339 65.2061 93.5694 65.5375 93.853 65.7635C94.1365 65.9896 94.4616 66.1009 94.79 66.0845L95.3371 66.0664L100.502 65.8965L102.363 65.8347L104.084 65.6846L126.841 61.2588L126.71 58.2122L124.094 58.6536L123.012 58.8363L106.951 61.5428L104.837 61.8992L103.812 62.0716L99.4808 61.9179L94.7922 61.7507C94.5551 61.7413 94.3191 61.7969 94.0981 61.9141C93.6926 62.1218 93.3614 62.5342 93.1734 63.0655C93.0751 63.3372 93.0252 63.6366 93.0279 63.9394C93.0306 64.2422 93.0858 64.5399 93.189 64.8082Z" fill="black"/>
<path opacity="0.8" d="M93.1849 65.1004C93.335 65.4983 93.5653 65.8297 93.8489 66.0557C94.1325 66.2818 94.4576 66.3931 94.786 66.3767L102.359 66.127L104.08 65.9768L128.348 61.2566L130.256 60.8861L131.295 60.6833C133.343 60.1513 132.773 57.3595 132.773 57.3595C132.648 56.089 129.156 54.8299 128.01 54.8502C127.24 54.8625 127.11 56.4743 127.109 57.5311C127.108 58.0485 127.137 58.4322 127.137 58.4322L126.002 58.6237L103.808 62.3638L94.7882 62.0429C94.4539 62.0261 94.1232 62.1413 93.8359 62.3746C93.5487 62.6079 93.3172 62.9494 93.1694 63.3577C93.071 63.6294 93.0212 63.9288 93.0239 64.2316C93.0266 64.5344 93.0818 64.8321 93.1849 65.1004Z" fill="#DCE0ED"/>
<path opacity="0.1" d="M129.632 56.6454C129.632 56.6454 128.644 58.2278 127.137 58.4327C127.137 58.4327 127.77 56.6462 129.632 56.6454Z" fill="black"/>
<path opacity="0.1" d="M129.82 61.1814C129.82 61.1814 133.007 61.1659 132.974 63.5037C132.942 65.8415 130.932 66.1797 130.932 66.1797L102.373 72.9003L94.281 72.8872C94.281 72.8872 91.4959 69.7461 94.4499 68.4578L102.607 68.9597L129.832 62.887C129.832 62.887 129.134 61.5536 129.82 61.1814Z" fill="black"/>
<path opacity="0.8" d="M94.2769 73.1794L102.369 73.1929L127.763 67.2169L129.62 66.7793L130.928 66.4724C130.928 66.4724 132.938 66.1338 132.97 63.7959C132.994 62.1185 131.358 61.6526 130.432 61.5236C130.069 61.4733 129.816 61.4741 129.816 61.4741C129.13 61.8453 129.828 63.1787 129.828 63.1787L128.837 63.4003L102.603 69.2524L94.4458 68.7505C91.4922 70.0383 94.2769 73.1794 94.2769 73.1794Z" fill="#DCE0ED"/>
<path opacity="0.8" d="M127.448 59.2202L125.78 58.1542L124.922 58.0834L124.857 67.9237L127.516 67.2612L128.639 66.3156L129.232 62.2382C129.232 62.2382 129.041 60.528 128.936 60.3791C128.831 60.2302 127.448 59.2202 127.448 59.2202Z" fill="#DCE0ED"/>
<path opacity="0.1" d="M127.448 59.2202L125.78 58.1542L124.922 58.0834L124.857 67.9237L127.516 67.2612L128.639 66.3156L129.232 62.2382C129.232 62.2382 129.041 60.528 128.936 60.3791C128.831 60.2302 127.448 59.2202 127.448 59.2202Z" fill="black"/>
<path opacity="0.1" d="M127.763 67.2169C127.742 67.2499 127.731 67.2672 127.731 67.2672L129.598 66.827C129.606 66.8111 129.614 66.7952 129.621 66.7793C130.632 64.6523 130.74 62.9069 130.433 61.5236C130.069 61.4733 129.816 61.4741 129.816 61.4741C129.13 61.8453 129.828 63.1787 129.828 63.1787L128.837 63.4003C128.877 65.3278 127.948 66.9176 127.763 67.2169Z" fill="black"/>
<path opacity="0.1" d="M125.136 58.0884C125.448 58.2616 125.737 58.4401 126.002 58.6237C127.195 59.4437 127.927 60.3483 128.348 61.2566L130.255 60.8861C129.463 58.5329 127.509 57.4186 127.509 57.4186L127.109 57.5311L125.136 58.0884Z" fill="black"/>
<path opacity="0.8" d="M127.294 57.4136C127.294 57.4136 132.481 60.3728 129.384 66.822L127.516 67.2612C127.516 67.2612 131.282 61.6088 124.922 58.0834L127.294 57.4136Z" fill="#DCE0ED"/>
<path opacity="0.8" d="M114.794 60.2593L112.863 60.1122L113.038 70.6895L116.163 69.9903L117.499 69.1475L118.137 67.069L118.596 64.9856L117.584 63.0595L116.418 61.9576L114.794 60.2593Z" fill="#DCE0ED"/>
<path opacity="0.1" d="M114.794 60.2593L112.863 60.1122L113.038 70.6895L116.163 69.9903L117.499 69.1475L118.137 67.069L118.596 64.9856L117.584 63.0595L116.418 61.9576L114.794 60.2593Z" fill="black"/>
<path opacity="0.8" d="M115.864 65.7437C115.88 64.5601 115.477 63.5899 114.963 63.5767C114.449 63.5635 114.019 64.5123 114.003 65.6958C113.986 66.8794 114.389 67.8496 114.903 67.8628C115.417 67.876 115.847 66.9272 115.864 65.7437Z" fill="#DCE0ED"/>
<path opacity="0.8" d="M123.769 68.8571C123.833 68.8953 123.892 68.9516 123.94 69.0224C123.987 69.0931 124.024 69.1767 124.046 69.2678C124.069 69.3589 124.077 69.4555 124.071 69.5512C124.064 69.647 124.043 69.7398 124.009 69.8237C123.79 70.3553 123.527 71.0433 123.549 71.2276C123.585 71.5391 123.078 71.2703 123.012 71.1955C122.946 71.1207 122.019 71.17 121.977 70.3102C121.972 70.0508 122.017 69.7942 122.107 69.5657C122.197 69.3372 122.33 69.1449 122.492 69.0079L122.303 67.1212L123.58 67.0078L123.543 68.7243L123.769 68.8571Z" fill="#636780"/>
<path opacity="0.1" d="M123.769 68.8571C123.833 68.8953 123.892 68.9516 123.94 69.0224C123.987 69.0931 124.024 69.1767 124.046 69.2678C124.069 69.3589 124.077 69.4555 124.071 69.5512C124.064 69.647 124.043 69.7398 124.009 69.8237C123.79 70.3553 123.527 71.0433 123.549 71.2276C123.585 71.5391 123.078 71.2703 123.012 71.1955C122.946 71.1207 122.019 71.17 121.977 70.3102C121.972 70.0508 122.017 69.7942 122.107 69.5657C122.197 69.3372 122.33 69.1449 122.492 69.0079L122.303 67.1212L123.58 67.0078L123.543 68.7243L123.769 68.8571Z" fill="black"/>
<path opacity="0.1" d="M123.421 68.8125C123.421 68.8125 122.964 70.8106 123.151 70.8884C123.338 70.9663 123.421 68.8125 123.421 68.8125Z" fill="black"/>
<path opacity="0.1" d="M122.944 68.3252C122.944 68.3252 122.487 70.3233 122.674 70.4012C122.861 70.4791 122.944 68.3252 122.944 68.3252Z" fill="black"/>
<path opacity="0.8" d="M117.883 62.1409L118.515 68.1997C118.515 68.1997 119.403 68.0574 119.894 67.9267C120.002 67.9095 120.106 67.8683 120.204 67.8046C120.229 67.7716 120.282 67.7759 120.351 67.7967L120.352 67.7967C120.59 67.8686 121.011 68.1484 121.097 67.924C121.103 67.9066 121.112 67.8906 121.121 67.8764L121.122 67.875C121.208 67.7529 121.37 67.8477 121.527 67.8839C121.611 67.9149 121.701 67.9009 121.778 67.8451C121.912 67.7286 122.177 67.9284 122.395 67.9983C122.533 68.0428 122.652 68.0371 122.709 67.869C122.731 67.8146 122.762 67.7679 122.8 67.7328C122.837 67.6977 122.88 67.6752 122.926 67.667L122.927 67.667C123.134 67.6022 123.422 67.6578 123.589 67.6139C123.655 67.598 123.7 67.5656 123.716 67.5046C123.75 67.3739 123.936 67.3159 124.134 67.2698C124.375 67.2131 124.633 67.1744 124.654 67.042C124.66 66.9983 124.684 66.9799 124.719 66.9793C124.852 67.0099 124.983 67.0573 125.11 67.1209L125.111 67.121C125.217 67.1602 125.307 67.164 125.334 67.0595C125.363 66.9447 125.487 66.9611 125.627 67.0114C125.74 67.0524 125.865 67.1155 125.961 67.1487C126.048 67.1772 126.11 67.1832 126.121 67.1279C126.159 66.9345 126.618 67.3848 126.731 66.9974C126.844 66.6101 128.348 64.0674 126.497 60.658C126.497 60.658 125.983 60.693 125.59 60.7794C125.459 60.8001 125.331 60.8455 125.21 60.9143C125.208 60.9142 125.206 60.9157 125.204 60.9171C124.979 60.9967 124.746 61.0272 124.513 61.0075C124.38 61.0063 124.248 61.0453 124.127 61.1218C124.08 61.1558 124.041 61.2096 124.018 61.2754C123.955 61.4594 123.817 61.4939 123.667 61.4783C123.464 61.457 123.24 61.3461 123.157 61.3994C123.154 61.4011 123.152 61.4025 123.149 61.4036C122.997 61.4874 122.437 61.3883 122.34 61.5129C122.337 61.5164 122.334 61.5202 122.332 61.5244C122.29 61.6052 122.071 61.5133 121.847 61.4666L121.846 61.4666C121.772 61.4367 121.694 61.4287 121.617 61.4431C121.54 61.4575 121.466 61.494 121.4 61.5502C121.3 61.654 121.174 61.7011 121.049 61.6815C120.898 61.6624 120.745 61.6668 120.594 61.6946C120.559 61.7067 120.527 61.7328 120.503 61.7697C120.409 61.9208 120.191 61.8948 119.997 61.9029C119.897 61.8946 119.798 61.9261 119.711 61.9935C119.68 62.0223 119.644 62.0414 119.607 62.0493C119.318 62.0778 119.028 62.0507 118.745 61.9687L117.883 62.1409Z" fill="#636780"/>
<path opacity="0.1" d="M125.627 67.0114C125.74 67.0523 125.865 67.1155 125.961 67.1486C127.458 64.1176 126.266 61.7556 125.59 60.7793C125.459 60.8001 125.331 60.8455 125.21 60.9143C126.637 63.2443 125.92 66.0908 125.627 67.0114Z" fill="black"/>
<path opacity="0.1" d="M124.719 66.9793C124.852 67.0099 124.983 67.0573 125.11 67.1209L125.111 67.121C126.397 64.159 125.148 61.8877 124.513 61.0075C124.38 61.0063 124.248 61.0453 124.127 61.1218C125.491 63.2295 125.042 65.7964 124.719 66.9793Z" fill="black"/>
<path opacity="0.1" d="M123.589 67.6139C123.655 67.598 123.701 67.5656 123.716 67.5046C123.75 67.3739 123.936 67.3159 124.134 67.2698C125.263 64.5859 124.316 62.4787 123.667 61.4783C123.464 61.457 123.24 61.346 123.157 61.3994C123.154 61.4011 123.152 61.4025 123.149 61.4036C124.656 63.7927 123.872 66.7471 123.589 67.6139Z" fill="black"/>
<path opacity="0.1" d="M122.395 67.9983C122.533 68.0428 122.652 68.0371 122.709 67.869C122.731 67.8146 122.762 67.7679 122.8 67.7328C122.837 67.6977 122.88 67.6752 122.926 67.667L122.927 67.667C124.242 64.6796 122.975 62.3887 122.34 61.5129C122.337 61.5164 122.334 61.5202 122.332 61.5244C122.29 61.6052 122.071 61.5133 121.847 61.4666C123.621 63.9971 122.645 67.2725 122.395 67.9983Z" fill="black"/>
<path opacity="0.1" d="M121.122 67.875C121.208 67.7529 121.37 67.8477 121.527 67.8839C122.895 64.9197 121.708 62.6236 121.049 61.6815C120.898 61.6624 120.745 61.6668 120.594 61.6946C122.111 64.0021 121.432 66.8744 121.122 67.875Z" fill="black"/>
<path opacity="0.1" d="M119.894 67.9267C120.002 67.9095 120.106 67.8683 120.204 67.8046C120.229 67.7716 120.282 67.7759 120.351 67.7967L120.352 67.7967C121.566 65.0887 120.657 62.9488 119.997 61.9029C119.897 61.8946 119.798 61.9261 119.711 61.9935C119.68 62.0223 119.644 62.0413 119.607 62.0492C120.861 64.3398 120.177 67.0409 119.894 67.9267Z" fill="black"/>
<path opacity="0.8" d="M90.9684 71.6327C91.058 65.1769 88.5186 59.8763 85.2964 59.7935C82.0741 59.7107 79.3894 64.877 79.2998 71.3328C79.2102 77.7886 81.7497 83.0892 84.9719 83.172C88.1941 83.2548 90.8788 78.0885 90.9684 71.6327Z" fill="#636780"/>
<path opacity="0.1" d="M89.5701 71.7673C89.6427 66.5354 87.8026 62.2453 85.4601 62.1851C83.1176 62.1249 81.1597 66.3174 81.0871 71.5493C81.0145 76.7812 82.8546 81.0712 85.1971 81.1315C87.5397 81.1917 89.4975 76.9992 89.5701 71.7673Z" fill="black"/>
<path opacity="0.8" d="M89.5742 71.4751C89.6468 66.2432 87.8067 61.9531 85.4642 61.8929C83.1216 61.8327 81.1638 66.0252 81.0912 71.2571C81.0185 76.4889 82.8587 80.779 85.2012 80.8392C87.5437 80.8994 89.5016 76.7069 89.5742 71.4751Z" fill="#F0F0F4"/>
<path opacity="0.8" d="M85.1524 65.0032C85.1614 64.3576 84.9443 63.8285 84.6675 63.8213C84.3908 63.8142 84.1592 64.3318 84.1502 64.9774C84.1413 65.623 84.3584 66.1521 84.6351 66.1592C84.9119 66.1663 85.1435 65.6487 85.1524 65.0032Z" fill="#636780"/>
<path opacity="0.8" d="M83.006 75.1797C83.015 74.5341 82.7979 74.005 82.5212 73.9979C82.2444 73.9908 82.0128 74.5083 82.0038 75.1539C81.9949 75.7995 82.212 76.3286 82.4887 76.3357C82.7655 76.3429 82.9971 75.8253 83.006 75.1797Z" fill="#636780"/>
<path opacity="0.8" d="M88.4784 70.4481C88.4874 69.8025 88.2703 69.2734 87.9935 69.2663C87.7168 69.2592 87.4852 69.7767 87.4762 70.4223C87.4673 71.0679 87.6844 71.597 87.9611 71.6041C88.2378 71.6112 88.4695 71.0937 88.4784 70.4481Z" fill="#636780"/>
<path opacity="0.8" d="M86.9162 77.2291C86.9252 76.5835 86.7081 76.0544 86.4314 76.0473C86.1546 76.0402 85.923 76.5577 85.9141 77.2033C85.9051 77.8489 86.1222 78.378 86.3989 78.3851C86.6757 78.3922 86.9073 77.8747 86.9162 77.2291Z" fill="#636780"/>
<path opacity="0.8" d="M42.7328 48.7603C42.7328 48.7603 38.334 63.8486 38.5356 64.8039C38.5356 64.8039 36.7436 66.2195 36.3191 65.8432C35.8947 65.4669 36.3638 58.7552 36.3638 58.7552L37.2513 52.8583L38.2127 49.3749L42.7328 48.7603Z" fill="#65617D"/>
<path opacity="0.15" d="M42.7328 48.7603C42.7328 48.7603 38.334 63.8486 38.5356 64.8039C38.5356 64.8039 36.7436 66.2195 36.3191 65.8432C35.8947 65.4669 36.3638 58.7552 36.3638 58.7552L37.2513 52.8583L38.2127 49.3749L42.7328 48.7603Z" fill="black"/>
<path opacity="0.8" d="M82.3781 68.8296C82.387 68.1841 82.1699 67.655 81.8932 67.6478C81.6164 67.6407 81.3848 68.1583 81.3758 68.8039C81.3669 69.4495 81.584 69.9786 81.8607 69.9857C82.1375 69.9928 82.3691 69.4752 82.3781 68.8296Z" fill="#636780"/>
<path opacity="0.8" d="M86.0256 71.7493C86.0468 70.216 85.4071 68.9562 84.5966 68.9354C83.7861 68.9145 83.1118 70.1406 83.0905 71.6738C83.0692 73.2071 83.709 74.4669 84.5195 74.4878C85.33 74.5086 86.0043 73.2825 86.0256 71.7493Z" fill="#636780"/>
<path opacity="0.8" d="M37.7798 68.9503C37.6578 77.7463 39.6942 85.8087 45.666 85.0852C53.1856 85.0592 53.8722 78.163 53.9942 69.367C54.1163 60.571 50.5775 53.9316 46.1 53.8165C41.6225 53.7014 37.9019 60.1543 37.7798 68.9503Z" fill="#636780"/>
<path opacity="0.1" d="M37.7327 68.964C37.8272 62.154 40.079 56.7496 43.1687 54.7092C47.0845 55.8271 50.0206 62.0559 49.9092 70.0809C49.8092 77.2893 49.329 83.2207 45.0207 85.1417C39.5109 85.2695 37.6148 77.4594 37.7327 68.964Z" fill="black"/>
<path opacity="0.1" d="M34.6638 65.1429C34.6638 65.1429 35.7204 66.4125 36.3232 65.551C36.3232 65.551 37.9918 49.8078 39.8183 49.7816L46.101 49.87C46.101 49.87 46.8466 50.3277 47.1424 52.2355L50.9862 68.0721L73.2443 69.0826L75.0114 64.2797L56.5947 63.8794L56.5927 63.8677C56.4996 63.38 53.6307 48.3504 51.5883 46.4373C51.5873 46.4358 51.5862 46.4357 51.5852 46.4342C51.5161 46.368 51.4405 46.3154 51.3607 46.2779C51.3607 46.2779 43.7023 44.6925 41.1657 45.5774C41.1657 45.5774 38.5237 46.3134 37.8642 47.3927C37.8622 47.3955 37.8604 47.3983 37.8587 47.4014C37.7711 47.5219 36.7534 49.0232 36.3841 53.4207L34.6638 65.1429Z" fill="black"/>
<path opacity="0.8" d="M34.6598 65.4352C34.6598 65.4352 35.7164 66.7047 36.3191 65.8432C36.3191 65.8432 37.9878 50.1 39.8142 50.0739L46.097 50.1623C46.097 50.1623 46.8426 50.6199 47.1383 52.5277L50.9822 68.3643L73.2403 69.3749L75.0074 64.5719L56.5907 64.1717L56.5887 64.1599C56.4956 63.6723 53.6266 48.6427 51.5843 46.7295C51.5833 46.728 51.5822 46.728 51.5811 46.7265C51.5121 46.6602 51.4365 46.6076 51.3566 46.5701C51.3566 46.5701 43.6982 44.9847 41.1616 45.8696C41.1616 45.8696 38.5196 46.6057 37.8602 47.685C37.8582 47.6877 37.8564 47.6906 37.8547 47.6936C37.7671 47.8141 36.7494 49.3154 36.3801 53.7129L34.6598 65.4352Z" fill="#65617D"/>
<path opacity="0.1" d="M34.6598 65.4352C34.6598 65.4352 35.7164 66.7047 36.3191 65.8432C36.3191 65.8432 37.9878 50.1 39.8142 50.0739L46.097 50.1623C46.097 50.1623 46.8426 50.6199 47.1383 52.5277L50.9822 68.3643L73.2403 69.3749L75.0074 64.5719L56.5907 64.1717L56.5887 64.1599C56.4956 63.6723 53.6266 48.6427 51.5843 46.7295C51.5833 46.728 51.5822 46.728 51.5811 46.7265C51.5121 46.6602 51.4365 46.6076 51.3566 46.5701C51.3566 46.5701 43.6982 44.9847 41.1616 45.8696C41.1616 45.8696 38.5196 46.6057 37.8602 47.685C37.8582 47.6877 37.8564 47.6906 37.8547 47.6936C37.7671 47.8141 36.7494 49.3154 36.3801 53.7129L34.6598 65.4352Z" fill="black"/>
<path opacity="0.8" d="M48.5364 48.544C49.054 49.9459 53.4341 67.1601 53.4341 67.1601L56.5907 64.1717L56.5887 64.1599C56.4956 63.6723 53.6236 48.6265 51.5811 46.7265C50.2324 47.0046 48.1843 47.5922 48.5364 48.544Z" fill="#65617D"/>
<path opacity="0.8" d="M54.6582 40.8814L57.0254 52.1971L70.1866 52.0237L70.0559 53.7013C70.0559 53.7013 59.719 55.482 55.355 52.5927L53.1352 42.2552L32.3731 41.8678L36.3458 40.7031L54.6582 40.8814Z" fill="#65617D"/>
<path opacity="0.1" d="M54.6582 40.8814L57.0254 52.1971L70.1866 52.0237L70.0559 53.7013C70.0559 53.7013 59.719 55.482 55.355 52.5927L53.1352 42.2552L32.3731 41.8678L36.3458 40.7031L54.6582 40.8814Z" fill="white"/>
<path opacity="0.1" d="M116.084 60.195C116.084 60.195 123.068 65.198 117.78 69.5933L116.378 69.9958C116.378 69.9958 121.566 65.1107 113.077 60.1177L116.084 60.195Z" fill="black"/>
<path opacity="0.8" d="M115.869 60.1895C115.869 60.1895 122.854 65.1925 117.565 69.5878L116.163 69.9902C116.163 69.9902 121.351 65.1052 112.863 60.1122L115.869 60.1895Z" fill="#DCE0ED"/>
<path opacity="0.8" d="M46.6752 70.4213C46.7452 65.3777 45.0471 61.244 42.8825 61.1883C40.7179 61.1327 38.9064 65.1762 38.8364 70.2198C38.7664 75.2634 40.4644 79.3971 42.629 79.4528C44.7936 79.5084 46.6052 75.4649 46.6752 70.4213Z" fill="#636780"/>
<path opacity="0.1" d="M45.7347 70.5943C45.7914 66.5069 44.5617 63.1606 42.988 63.1202C41.4144 63.0797 40.0927 66.3605 40.0359 70.4479C39.9792 74.5353 41.2089 77.8815 42.7826 77.922C44.3562 77.9624 45.6779 74.6817 45.7347 70.5943Z" fill="black"/>
<path opacity="0.8" d="M45.7387 70.3021C45.7955 66.2147 44.5657 62.8684 42.9921 62.8279C41.4184 62.7875 40.0967 66.0682 40.04 70.1556C39.9833 74.243 41.213 77.5893 42.7866 77.6297C44.3603 77.6702 45.682 74.3895 45.7387 70.3021Z" fill="#F0F0F4"/>
<path opacity="0.8" d="M42.7779 65.2586C42.7849 64.7542 42.6399 64.3415 42.454 64.3367C42.268 64.3319 42.1117 64.7369 42.1047 65.2413C42.0977 65.7456 42.2427 66.1584 42.4286 66.1631C42.6145 66.1679 42.7709 65.7629 42.7779 65.2586Z" fill="#636780"/>
<path opacity="0.8" d="M41.3205 73.2147C41.3275 72.7103 41.1824 72.2976 40.9965 72.2928C40.8106 72.288 40.6542 72.693 40.6472 73.1974C40.6402 73.7017 40.7853 74.1145 40.9712 74.1192C41.1571 74.124 41.3135 73.719 41.3205 73.2147Z" fill="#636780"/>
<path opacity="0.8" d="M45.0041 69.5029C45.0111 68.9985 44.8661 68.5858 44.6802 68.581C44.4943 68.5762 44.3379 68.9812 44.3309 69.4856C44.3239 69.9899 44.4689 70.4026 44.6548 70.4074C44.8407 70.4122 44.9971 70.0072 45.0041 69.5029Z" fill="#636780"/>
<path opacity="0.8" d="M43.9443 74.8047C43.9513 74.3003 43.8063 73.8876 43.6204 73.8828C43.4345 73.878 43.2781 74.283 43.2711 74.7874C43.2641 75.2917 43.4091 75.7045 43.595 75.7092C43.7809 75.714 43.9373 75.309 43.9443 74.8047Z" fill="#636780"/>
<path opacity="0.8" d="M40.9082 68.2557C40.9153 67.7513 40.7702 67.3386 40.5843 67.3338C40.3984 67.329 40.242 67.734 40.235 68.2384C40.228 68.7427 40.373 69.1555 40.5589 69.1602C40.7449 69.165 40.9012 68.76 40.9082 68.2557Z" fill="#636780"/>
<path opacity="0.8" d="M43.3543 70.5263C43.3709 69.3284 42.943 68.346 42.3985 68.332C41.8541 68.3181 41.3992 69.2778 41.3826 70.4756C41.3659 71.6735 41.7938 72.6558 42.3383 72.6698C42.8828 72.6838 43.3377 71.7241 43.3543 70.5263Z" fill="#636780"/>
<path opacity="0.1" d="M100.231 31.1631C100.231 31.1631 88.3037 31.4412 72.7609 36.8154L100.231 31.1631Z" fill="black"/>
<path opacity="0.8" d="M43.7562 1.30855C43.7562 1.30855 44.4015 1.46609 44.0488 2.61996C43.8624 3.18033 43.7239 3.76799 43.636 4.37137C43.636 4.37137 42.9824 4.8127 43.0293 3.29857C43.0763 1.78444 43.7562 1.30855 43.7562 1.30855Z" fill="#DCE0ED"/>
<path opacity="0.8" d="M68.8401 29.0752L69.7902 34.2209L73.0634 30.3182" stroke="black" stroke-miterlimit="10"/>
<path opacity="0.8" d="M74.4948 35.1372L64.8177 32.8771L63.1854 45.818L72.8625 48.0781L74.4948 35.1372Z" fill="white"/>
<path opacity="0.8" d="M67.6235 46.2315L67.8055 44.7884C67.2378 44.6533 66.7089 44.3057 66.2782 43.7845L66.651 42.886C67.0952 43.3994 67.6316 43.743 68.2054 43.8816C68.9509 44.0557 69.5288 43.5876 69.6315 42.7731C69.7306 41.9873 69.3824 41.4059 68.6594 40.7958C67.6605 39.9741 67.2017 39.1903 67.3585 37.9472C67.508 36.7614 68.1812 35.992 69.1743 36.0032L69.3563 34.5602L69.8875 34.6842L69.7126 36.0701C70.191 36.1871 70.6393 36.4691 71.0147 36.8891L70.6332 37.7707C70.2974 37.3558 69.8795 37.0843 69.4313 36.9899C68.6228 36.8011 68.3552 37.4152 68.2831 37.9867C68.1894 38.7297 68.4112 39.164 69.2599 39.8917C70.2657 40.7443 70.8378 41.6428 70.6774 42.9145C70.535 44.0432 69.8242 44.9657 68.712 44.956L68.5246 46.4419L67.6235 46.2315Z" fill="#636780"/>
<path opacity="0.8" d="M67.4589 93.1258C67.5427 93.1219 67.622 93.0738 67.6803 92.9918C67.7385 92.9097 67.771 92.8001 67.771 92.6861C67.771 92.572 67.7385 92.4624 67.6803 92.3804C67.622 92.2984 67.5427 92.2503 67.4589 92.2464C67.3751 92.2503 67.2957 92.2984 67.2375 92.3804C67.1793 92.4624 67.1467 92.572 67.1467 92.6861C67.1467 92.8001 67.1793 92.9097 67.2375 92.9918C67.2957 93.0738 67.3751 93.1219 67.4589 93.1258Z" fill="#65617D"/>
</g>
<path opacity="0.1" d="M143.032 133.324C145.254 133.324 147.056 132.91 147.056 132.399C147.056 131.887 145.254 131.473 143.032 131.473C140.81 131.473 139.008 131.887 139.008 132.399C139.008 132.91 140.81 133.324 143.032 133.324Z" fill="#8854D0"/>
<path d="M140.33 128.098C140.33 128.098 142.625 128.002 143.317 127.331C144.009 126.661 146.847 125.861 147.019 126.936C147.191 128.011 150.468 132.282 147.877 132.31C145.286 132.339 141.856 131.761 141.166 131.189C140.475 130.617 140.33 128.098 140.33 128.098Z" fill="#A8A8A8"/>
<path opacity="0.2" d="M147.923 131.936C145.332 131.965 141.902 131.387 141.212 130.815C140.686 130.379 140.477 128.815 140.407 128.094C140.358 128.096 140.33 128.098 140.33 128.098C140.33 128.098 140.475 130.617 141.166 131.189C141.856 131.761 145.286 132.339 147.877 132.31C148.625 132.302 148.883 131.94 148.869 131.404C148.765 131.728 148.48 131.93 147.923 131.936Z" fill="black"/>
<path opacity="0.1" d="M166.37 122.326C168.08 122.326 169.466 122.007 169.466 121.614C169.466 121.22 168.08 120.902 166.37 120.902C164.66 120.902 163.274 121.22 163.274 121.614C163.274 122.007 164.66 122.326 166.37 122.326Z" fill="#8854D0"/>
<path d="M164.291 118.304C164.291 118.304 166.057 118.23 166.589 117.714C167.122 117.199 169.306 116.583 169.438 117.41C169.57 118.237 172.092 121.524 170.098 121.546C168.104 121.568 165.465 121.123 164.934 120.683C164.403 120.242 164.291 118.304 164.291 118.304Z" fill="#A8A8A8"/>
<path opacity="0.2" d="M170.134 121.258C168.14 121.28 165.501 120.835 164.97 120.395C164.565 120.059 164.404 118.856 164.35 118.301C164.312 118.303 164.291 118.304 164.291 118.304C164.291 118.304 164.403 120.242 164.934 120.683C165.465 121.123 168.104 121.568 170.098 121.546C170.674 121.539 170.873 121.261 170.862 120.848C170.782 121.097 170.562 121.253 170.134 121.258Z" fill="black"/>
<path opacity="0.1" d="M152.322 168.341C156.404 168.341 159.713 167.58 159.713 166.641C159.713 165.702 156.404 164.941 152.322 164.941C148.24 164.941 144.93 165.702 144.93 166.641C144.93 167.58 148.24 168.341 152.322 168.341Z" fill="#8854D0"/>
<path d="M147.358 158.74C147.358 158.74 151.574 158.563 152.845 157.332C154.116 156.101 159.331 154.631 159.646 156.605C159.961 158.58 165.982 166.426 161.222 166.479C156.462 166.531 150.161 165.47 148.893 164.418C147.625 163.367 147.358 158.74 147.358 158.74Z" fill="#A8A8A8"/>
<path opacity="0.2" d="M161.307 165.791C156.547 165.843 150.246 164.782 148.978 163.731C148.012 162.931 147.627 160.058 147.499 158.733C147.409 158.738 147.358 158.74 147.358 158.74C147.358 158.74 147.625 163.367 148.893 164.418C150.161 165.47 156.462 166.531 161.222 166.479C162.596 166.464 163.071 165.798 163.045 164.813C162.854 165.408 162.33 165.78 161.307 165.791Z" fill="black"/>
<path d="M230.368 106.789C230.368 113.54 228.452 120.03 225.02 124.905C221.588 129.78 216.905 132.663 211.949 132.953C206.992 133.243 202.145 130.917 198.418 126.461C194.692 122.005 192.374 115.762 191.948 109.036C191.92 108.611 191.899 108.186 191.89 107.754V107.732C191.88 107.417 191.876 107.103 191.876 106.789C191.877 99.8448 193.906 93.1858 197.515 88.2764C201.124 83.367 206.018 80.609 211.122 80.609C216.225 80.609 221.119 83.367 224.728 88.2764C228.337 93.1858 230.366 99.8448 230.368 106.789Z" fill="#65617D"/>
<path opacity="0.2" d="M230.368 106.789C230.368 113.54 228.452 120.03 225.02 124.905C221.588 129.78 216.905 132.663 211.949 132.953C206.992 133.243 202.145 130.917 198.418 126.461C194.692 122.005 192.374 115.762 191.948 109.036C191.92 108.611 191.899 108.186 191.89 107.754V107.732C191.88 107.417 191.876 107.103 191.876 106.789C191.877 99.8448 193.906 93.1858 197.515 88.2764C201.124 83.367 206.018 80.609 211.122 80.609C216.225 80.609 221.119 83.367 224.728 88.2764C228.337 93.1858 230.366 99.8448 230.368 106.789Z" fill="black"/>
<path d="M211.121 121.074C216.919 121.074 221.619 114.678 221.619 106.789C221.619 98.8997 216.919 92.5042 211.121 92.5042C205.323 92.5042 200.623 98.8997 200.623 106.789C200.623 114.678 205.323 121.074 211.121 121.074Z" fill="#DCE0ED"/>
<path d="M211.121 115.36C214.6 115.36 217.42 111.522 217.42 106.789C217.42 102.055 214.6 98.2181 211.121 98.2181C207.642 98.2181 204.822 102.055 204.822 106.789C204.822 111.522 207.642 115.36 211.121 115.36Z" fill="#65617D"/>
<path d="M127.622 106.789C127.622 113.54 125.706 120.03 122.274 124.905C118.842 129.78 114.16 132.663 109.203 132.953C104.246 133.243 99.399 130.917 95.6723 126.461C91.9457 122.005 89.6277 115.762 89.2021 109.036C89.1741 108.611 89.1531 108.186 89.1438 107.754V107.732C89.1344 107.417 89.1298 107.103 89.1298 106.789C89.1315 99.8448 91.1599 93.1858 94.7691 88.2764C98.3782 83.367 103.273 80.609 108.376 80.609C113.479 80.609 118.373 83.367 121.982 88.2764C125.592 93.1858 127.62 99.8448 127.622 106.789Z" fill="#65617D"/>
<path opacity="0.2" d="M127.622 106.789C127.622 113.54 125.706 120.03 122.274 124.905C118.842 129.78 114.16 132.663 109.203 132.953C104.246 133.243 99.399 130.917 95.6723 126.461C91.9457 122.005 89.6277 115.762 89.2021 109.036C89.1741 108.611 89.1531 108.186 89.1438 107.754V107.732C89.1344 107.417 89.1298 107.103 89.1298 106.789C89.1315 99.8448 91.1599 93.1858 94.7691 88.2764C98.3782 83.367 103.273 80.609 108.376 80.609C113.479 80.609 118.373 83.367 121.982 88.2764C125.592 93.1858 127.62 99.8448 127.622 106.789Z" fill="black"/>
<path d="M108.375 121.074C114.173 121.074 118.873 114.678 118.873 106.789C118.873 98.8997 114.173 92.5042 108.375 92.5042C102.577 92.5042 97.8774 98.8997 97.8774 106.789C97.8774 114.678 102.577 121.074 108.375 121.074Z" fill="#DCE0ED"/>
<path d="M108.375 115.36C111.854 115.36 114.674 111.522 114.674 106.789C114.674 102.055 111.854 98.2181 108.375 98.2181C104.897 98.2181 102.077 102.055 102.077 106.789C102.077 111.522 104.897 115.36 108.375 115.36Z" fill="#65617D"/>
<path d="M236.37 101.882L229.949 101.502L224.086 86.685L203.425 84.4055L193.373 102.262L193.932 107.2L192.536 111.759L126.924 112.519V110.24H126.365L125.807 106.821H130.833L127.203 101.502L114.36 86.685C114.36 86.685 92.3029 87.4448 92.0237 86.685C91.7445 85.9251 93.2801 78.1368 93.2801 78.1368L102.773 74.3377L135.16 70.9184C142.28 55.5318 148.701 48.3134 148.701 48.3134H231.903L235.812 75.6674V75.7319L236.37 101.882Z" fill="#444053"/>
<path d="M190.023 103.781C190.023 103.781 198.399 82.5059 204.821 82.5059H220.456C220.456 82.5059 224.365 82.5059 226.04 86.685L232.462 103.781H227.436C227.436 103.781 223.248 87.8247 218.502 87.4448C213.755 87.0649 205.658 87.4448 205.658 87.4448C205.658 87.4448 202.866 87.4448 201.191 92.0038C199.516 96.5628 193.852 106.494 193.852 106.494C193.852 106.494 187.79 109.1 190.023 103.781Z" fill="#33323D"/>
<path d="M240 100.362H229.498L229.39 111.759L240 108.34V100.362Z" fill="#33323D"/>
<path d="M88.1149 93.5235C88.1149 93.5235 88.6733 87.8247 92.5821 85.5452L118.269 83.6456C118.269 83.6456 122.457 84.0256 124.69 91.244L131.949 106.061V108.34H123.853C123.853 108.34 119.944 88.2046 108.776 88.9645H95.3741C95.3741 88.9645 92.3029 88.9645 91.1861 95.803L88.1149 93.5235Z" fill="#33323D"/>
<path d="M148.422 50.5929H234.137C234.137 49.4845 233.813 48.4215 233.237 47.6378C232.661 46.8541 231.88 46.4138 231.066 46.4138H151.493C151.09 46.4138 150.691 46.5219 150.318 46.7319C149.946 46.9419 149.607 47.2498 149.322 47.6378C149.037 48.0259 148.81 48.4866 148.656 48.9936C148.502 49.5006 148.422 50.0441 148.422 50.5929Z" fill="#33323D"/>
<path opacity="0.3" d="M166.791 73.008H143.072C142.805 73.008 142.542 72.9171 142.307 72.7437C142.072 72.5703 141.873 72.3198 141.728 72.0149C141.582 71.7101 141.495 71.3606 141.474 70.9981C141.452 70.6357 141.498 70.2719 141.607 69.9396L145.36 58.4486C145.939 56.6757 146.884 55.1695 148.079 54.1123C149.275 53.0551 150.67 52.4925 152.095 52.4925H166.507C166.772 52.4925 167.034 52.5635 167.279 52.7015C167.524 52.8395 167.746 53.0418 167.934 53.2968C168.121 53.5518 168.27 53.8545 168.371 54.1877C168.472 54.5209 168.525 54.878 168.525 55.2386V70.6492C168.525 70.959 168.48 71.2657 168.393 71.5519C168.306 71.838 168.178 72.0981 168.017 72.3171C167.856 72.5361 167.665 72.7099 167.455 72.8284C167.244 72.947 167.019 73.008 166.791 73.008Z" fill="#8854D0"/>
<path opacity="0.3" d="M196.647 52.4925H175.861C175.201 52.4925 174.667 53.2195 174.667 54.1164V71.3841C174.667 72.2809 175.201 73.008 175.861 73.008H196.647C197.306 73.008 197.841 72.2809 197.841 71.3841V54.1164C197.841 53.2195 197.306 52.4925 196.647 52.4925Z" fill="#8854D0"/>
<path d="M235.812 75.6673V75.7321L199.795 76.4271L198.857 48.3135H231.903L235.812 75.6673Z" fill="#33323D"/>
<path opacity="0.3" d="M228.197 52.4925H204.06C203.401 52.4925 202.866 53.2195 202.866 54.1164V71.3841C202.866 72.2809 203.401 73.008 204.06 73.008H228.197C228.856 73.008 229.39 72.2809 229.39 71.3841V54.1164C229.39 53.2195 228.856 52.4925 228.197 52.4925Z" fill="#8854D0"/>
<path d="M169.821 80.2264H161.645C161.435 80.2264 161.265 80.4574 161.265 80.7423V81.99C161.265 82.2749 161.435 82.5059 161.645 82.5059H169.821C170.03 82.5059 170.2 82.2749 170.2 81.99V80.7423C170.2 80.4574 170.03 80.2264 169.821 80.2264Z" fill="#33323D"/>
<path d="M195.507 80.2264H187.331C187.122 80.2264 186.952 80.4574 186.952 80.7423V81.99C186.952 82.2749 187.122 82.5059 187.331 82.5059H195.507C195.717 82.5059 195.886 82.2749 195.886 81.99V80.7423C195.886 80.4574 195.717 80.2264 195.507 80.2264Z" fill="#33323D"/>
<path d="M215.383 50.2237H205.044V64.0497H215.383V50.2237Z" fill="white"/>
<path d="M209.704 63.4031V61.8614C209.097 61.8587 208.503 61.6261 207.988 61.1897L208.257 60.1669C208.785 60.592 209.387 60.8185 210.001 60.8233C210.797 60.8233 211.336 60.1974 211.336 59.3272C211.336 58.4877 210.898 57.9686 210.068 57.5107C208.924 56.9001 208.345 56.1979 208.345 54.8697C208.345 53.6027 208.943 52.6411 209.975 52.412V50.8703H210.542V52.351C211.054 52.3565 211.556 52.5405 212.001 52.8853L211.72 53.8927C211.318 53.5436 210.848 53.3631 210.371 53.3738C209.507 53.3738 209.31 54.0759 209.31 54.6866C209.31 55.4804 209.597 55.8773 210.573 56.4269C211.728 57.068 212.44 57.8618 212.44 59.2204C212.44 60.4263 211.823 61.5561 210.667 61.8155V63.4031L209.704 63.4031Z" fill="#636780"/>
<path d="M91.3293 136.325C91.3295 140.387 90.1768 144.292 88.1117 147.226C86.0466 150.159 83.2288 151.894 80.2462 152.069C77.2636 152.243 74.3467 150.844 72.1042 148.162C69.8618 145.481 68.467 141.724 68.2109 137.677C68.1941 137.421 68.1815 137.165 68.1758 136.905V136.892C68.1702 136.703 68.1674 136.514 68.1674 136.325C68.1714 132.149 69.3933 128.146 71.5647 125.195C73.7361 122.244 76.6795 120.586 79.7484 120.586C82.8172 120.586 85.7606 122.244 87.9321 125.195C90.1035 128.146 91.3254 132.149 91.3293 136.325Z" fill="#65617D"/>
<path d="M79.7481 144.92C83.2368 144.92 86.0649 141.072 86.0649 136.325C86.0649 131.577 83.2368 127.729 79.7481 127.729C76.2593 127.729 73.4312 131.577 73.4312 136.325C73.4312 141.072 76.2593 144.92 79.7481 144.92Z" fill="#DCE0ED"/>
<path d="M79.748 141.482C81.8413 141.482 83.5382 139.173 83.5382 136.325C83.5382 133.476 81.8413 131.167 79.748 131.167C77.6548 131.167 75.9579 133.476 75.9579 136.325C75.9579 139.173 77.6548 141.482 79.748 141.482Z" fill="#65617D"/>
<path d="M49.3347 106.399L21.4477 107.163V101.56C21.6976 97.058 25.0904 95.4783 28.1871 94.9836C30.6016 94.6106 33.046 94.8601 35.3926 95.719C41.3094 97.8507 45.0827 98.2633 46.9356 98.3034C47.3433 98.3119 47.7363 98.5115 48.0483 98.8685C48.3603 99.2256 48.5722 99.7182 48.6482 100.263C48.7367 100.903 48.8237 101.6 48.9051 102.288C48.9669 102.827 49.0258 103.358 49.0792 103.852C49.2322 105.287 49.3347 106.399 49.3347 106.399Z" fill="#65617D"/>
<path d="M71.5827 137.343H13.6513C13.204 137.349 12.7652 137.176 12.3896 136.846C12.0139 136.515 11.718 136.042 11.5386 135.484C11.1021 134.065 11.7127 133.159 12.364 132.628C13.697 131.553 14.7074 129.871 15.2165 127.88C15.8341 125.406 16.4377 121.511 16.675 115.441C16.9192 109.163 18.5897 106.059 20.3949 104.555H20.3963C22.7279 102.615 25.2842 103.342 25.2842 103.342L48.7732 103.598C49.1913 103.856 49.578 104.2 49.92 104.616C52.013 107.268 48.9613 110.729 48.9613 110.729C42.41 120.151 47.3694 129.702 47.3694 129.702H59.3883C61.634 129.718 63.8299 128.803 65.6842 127.08C67.3083 125.553 67.9372 124.075 68.18 123.181C68.3653 122.497 68.5534 121.815 68.778 121.154C71.9309 111.85 68.1281 96.7142 66.4871 91.0545C66.08 89.6467 65.8063 88.8254 65.8063 88.8254L69.5754 88.4376L71.9589 88.1912L71.9828 88.1893C77.2357 100.517 79.1883 113.185 79.8452 122.572C79.907 123.456 79.9575 124.314 79.9982 125.137C80.073 126.703 79.9107 128.272 79.5215 129.749C79.1323 131.226 78.5244 132.579 77.7355 133.723C76.9466 134.867 75.9935 135.779 74.9351 136.401C73.8768 137.024 72.7358 137.344 71.5827 137.343Z" fill="#8854D0"/>
<path opacity="0.1" d="M49.0792 103.852H21.4477V102.288H48.9051C48.9669 102.827 49.0259 103.358 49.0792 103.852Z" fill="black"/>
<path opacity="0.1" d="M49.92 104.616H20.6181C20.5419 104.617 20.4664 104.596 20.3963 104.555C22.7279 102.615 25.2842 103.342 25.2842 103.342L48.7732 103.598C49.1913 103.856 49.578 104.2 49.92 104.616Z" fill="black"/>
<path d="M50.1643 102.671H10.366C10.0486 102.671 9.79141 103.021 9.79141 103.453C9.79141 103.884 10.0486 104.234 10.366 104.234H50.1643C50.4817 104.234 50.7389 103.884 50.7389 103.453C50.7389 103.021 50.4817 102.671 50.1643 102.671Z" fill="#DCE0ED"/>
<path opacity="0.1" d="M79.8452 122.572C78.5103 124.547 77.5276 125.324 77.574 123.24C77.7143 116.937 69.5754 88.4376 69.5754 88.4376L71.9828 88.1893C77.2357 100.517 79.1883 113.185 79.8452 122.572Z" fill="black"/>
<path opacity="0.1" d="M91.2592 134.598C89.8765 135.049 88.1667 135.507 86.0583 135.927C85.275 136.084 84.4346 136.234 83.5371 136.378C81.3852 136.726 78.8963 137.029 76.0214 137.262C75.2072 137.329 74.3617 137.39 73.4848 137.444C71.8424 137.545 70.0845 137.623 68.2109 137.677L68.1758 136.905V136.892C70.7938 135.454 74.9124 131.616 75.5764 121.62C77.231 120.753 79.0098 120.414 80.7758 120.629C82.5419 120.844 84.2481 121.608 85.763 122.861C87.278 124.115 88.5613 125.825 89.5142 127.86C90.4671 129.895 91.064 132.2 91.2592 134.598Z" fill="black"/>
<path d="M65.993 137.343C65.993 137.343 79.2866 135.383 74.7103 107.818C74.7103 107.818 81.2792 116.012 85.3648 120.566C89.4504 125.12 96.7325 131.398 96.7325 131.398C96.7325 131.398 92.3836 136.929 65.993 137.343Z" fill="#8854D0"/>
<path opacity="0.1" d="M65.993 137.343C65.993 137.343 79.2866 135.383 74.7103 107.818C74.7103 107.818 81.2792 116.012 85.3648 120.566C89.4504 125.12 96.7325 131.398 96.7325 131.398C96.7325 131.398 92.3836 136.929 65.993 137.343Z" fill="white"/>
<path d="M30.4781 152.083C36.874 152.083 42.059 145.028 42.059 136.325C42.059 127.621 36.874 120.566 30.4781 120.566C24.0821 120.566 18.8971 127.621 18.8971 136.325C18.8971 145.028 24.0821 152.083 30.4781 152.083Z" fill="#65617D"/>
<path d="M30.4781 144.92C33.9668 144.92 36.795 141.072 36.795 136.325C36.795 131.577 33.9668 127.729 30.4781 127.729C26.9893 127.729 24.1612 131.577 24.1612 136.325C24.1612 141.072 26.9893 144.92 30.4781 144.92Z" fill="#DCE0ED"/>
<path d="M30.4781 141.482C32.5713 141.482 34.2682 139.173 34.2682 136.325C34.2682 133.476 32.5713 131.167 30.4781 131.167C28.3848 131.167 26.6879 133.476 26.6879 136.325C26.6879 139.173 28.3848 141.482 30.4781 141.482Z" fill="#65617D"/>
<path opacity="0.1" d="M43.4628 131.592C43.4628 121.415 37.5236 113.165 30.1973 113.165C22.871 113.165 16.9318 121.415 16.9318 131.592C16.9318 132.021 16.9433 132.447 16.9641 132.869H43.4305C43.4513 132.447 43.4628 132.021 43.4628 131.592Z" fill="black"/>
<path d="M42.9715 131.274C42.9715 121.475 37.2523 113.53 30.1973 113.53C23.1423 113.53 17.4232 121.475 17.4232 131.274C17.4232 131.688 17.4342 132.098 17.4542 132.504H42.9404C42.9604 132.098 42.9715 131.688 42.9715 131.274Z" fill="#8854D0"/>
<path opacity="0.1" d="M42.9714 131.274C42.9714 131.559 42.9658 131.841 42.956 132.122C42.9518 132.25 42.9462 132.376 42.9406 132.504H17.454C17.4484 132.376 17.4428 132.25 17.4386 132.122C17.4288 131.841 17.4232 131.559 17.4232 131.274C17.4232 121.475 23.142 113.531 30.1973 113.531C37.2526 113.531 42.9714 121.475 42.9714 131.274Z" fill="white"/>
<path opacity="0.1" d="M42.956 132.122C42.9518 132.25 42.9462 132.376 42.9406 132.504H17.454C17.4484 132.376 17.4428 132.25 17.4386 132.122H42.956Z" fill="black"/>
<path opacity="0.1" d="M77.5621 105.922C78.4081 105.402 78.3129 102.629 77.3494 99.73C76.3859 96.8308 74.919 94.9025 74.073 95.4231C73.227 95.9437 73.3222 98.716 74.2857 101.615C75.2492 104.514 76.7161 106.443 77.5621 105.922Z" fill="black"/>
<path d="M77.7025 105.731C78.5485 105.211 78.4532 102.438 77.4898 99.539C76.5263 96.6398 75.0594 94.7115 74.2134 95.2321C73.3674 95.7527 73.4626 98.525 74.4261 101.424C75.3896 104.323 76.8565 106.252 77.7025 105.731Z" fill="#DCE0ED"/>
<path opacity="0.1" d="M71.959 88.1912V91.1844H67.6775C67.2788 91.1849 66.8807 91.1415 66.4872 91.0545C66.0801 89.6467 65.8063 88.8253 65.8063 88.8253L69.5754 88.4376L71.959 88.1912Z" fill="black"/>
<path d="M71.959 90.8021H67.6775C63.9174 90.8021 60.8693 86.974 60.8693 82.2518V81.4585C60.8693 76.7363 63.9175 72.9082 67.6775 72.9082L71.959 73.4371V90.8021Z" fill="#8854D0"/>
<path d="M64.9051 77.9701C64.9051 77.9701 67.467 79.8325 65.993 82.9842C65.993 82.9842 64.1857 87.0193 61.3431 86.6373L60.3078 77.9701C60.3078 77.9701 63.7119 77.5403 64.9051 77.9701Z" fill="#8854D0"/>
<path opacity="0.1" d="M63.9217 77.8017C64.3284 77.8233 64.7264 77.9687 65.0863 78.2272C65.4463 78.4856 65.7591 78.8506 66.0018 79.2952C66.458 80.1548 66.73 81.4083 65.993 82.9842C65.993 82.9842 64.1857 87.0193 61.3431 86.6373L60.3078 77.9701C61.5091 77.8204 62.7157 77.7641 63.9217 77.8017Z" fill="black"/>
<path opacity="0.1" d="M71.8186 73.4371C72.2702 73.4371 72.7175 73.5582 73.1347 73.7934C73.552 74.0285 73.9311 74.3733 74.2505 74.8078C74.5698 75.2424 74.8232 75.7583 74.996 76.3261C75.1688 76.8938 75.2578 77.5024 75.2578 78.117V86.1223C75.2578 87.3634 74.8955 88.5538 74.2505 89.4314C73.6055 90.309 72.7307 90.8021 71.8186 90.8021V73.4371Z" fill="black"/>
<path d="M71.959 73.4371C72.8711 73.4371 73.7459 73.9302 74.3908 74.8078C75.0358 75.6855 75.3981 76.8758 75.3981 78.117V86.1223C75.3981 87.3634 75.0358 88.5538 74.3908 89.4314C73.7459 90.309 72.8711 90.8021 71.959 90.8021V73.4371Z" fill="#DCE0ED"/>
<path d="M60.0114 87.1865C61.5823 87.1865 62.8558 85.0783 62.8558 82.4778C62.8558 79.8772 61.5823 77.769 60.0114 77.769C58.4404 77.769 57.1669 79.8772 57.1669 82.4778C57.1669 85.0783 58.4404 87.1865 60.0114 87.1865Z" fill="#8854D0"/>
<path d="M29.7206 104.245L30.9635 108.011L33.0405 104.245" stroke="black" stroke-miterlimit="10"/>
<path d="M35.9237 108.168H25.7889V121.721H35.9237V108.168Z" fill="white"/>
<path d="M30.357 121.088V119.576C29.7621 119.574 29.1795 119.346 28.6745 118.918L28.9384 117.915C29.4561 118.332 30.0459 118.554 30.6474 118.559C31.4282 118.559 31.956 117.945 31.956 117.092C31.956 116.269 31.5272 115.76 30.7134 115.311C29.5917 114.713 29.0244 114.025 29.0244 112.723C29.0244 111.481 29.6104 110.538 30.6222 110.314V108.802H31.1785V110.254C31.6801 110.259 32.1723 110.439 32.6081 110.777L32.3332 111.765C31.9384 111.423 31.4784 111.246 31.0103 111.256C30.1635 111.256 29.9701 111.945 29.9701 112.543C29.9701 113.321 30.2515 113.71 31.2082 114.249C32.3409 114.878 33.0382 115.656 33.0382 116.987C33.0382 118.17 32.4334 119.277 31.3007 119.531V121.088L30.357 121.088Z" fill="#636780"/>
<path d="M12.4955 72.3422H10.9874V104.003H12.4955V72.3422Z" fill="#DCE0ED"/>
<path d="M10.9874 72.3422C10.9874 72.3422 5.386 72.6354 4.3088 73.2217C3.2316 73.808 0 73.5148 0 73.5148V81.7232C0 81.7232 3.66248 80.5506 5.60144 81.43C7.5404 82.3095 11.6338 80.2574 11.6338 80.2574L10.9874 72.3422Z" fill="#DCE0ED"/>
</g>
<defs>
<clipPath id="clip0">
<rect width="240" height="174" fill="white"/>
</clipPath>
</defs>
</svg>
